%TF.GenerationSoftware,KiCad,Pcbnew,10.0.5-10.0.5~ubuntu22.04.1*%
%TF.CreationDate,2026-08-04T00:03:55+05:30*%
%TF.ProjectId,lsa,6c73612e-6b69-4636-9164-5f7063625858,rev?*%
%TF.SameCoordinates,Original*%
%TF.FileFunction,Copper,L2,Bot*%
%TF.FilePolarity,Positive*%
%FSLAX46Y46*%
G04 Gerber Fmt 4.6, Leading zero omitted, Abs format (unit mm)*
G04 Created by KiCad (PCBNEW 10.0.5-10.0.5~ubuntu22.04.1) date 2026-08-04 00:03:55*
%MOMM*%
%LPD*%
G01*
G04 APERTURE LIST*
G04 Aperture macros list*
%AMRoundRect*
0 Rectangle with rounded corners*
0 $1 Rounding radius*
0 $2 $3 $4 $5 $6 $7 $8 $9 X,Y pos of 4 corners*
0 Add a 4 corners polygon primitive as box body*
4,1,4,$2,$3,$4,$5,$6,$7,$8,$9,$2,$3,0*
0 Add four circle primitives for the rounded corners*
1,1,$1+$1,$2,$3*
1,1,$1+$1,$4,$5*
1,1,$1+$1,$6,$7*
1,1,$1+$1,$8,$9*
0 Add four rect primitives between the rounded corners*
20,1,$1+$1,$2,$3,$4,$5,0*
20,1,$1+$1,$4,$5,$6,$7,0*
20,1,$1+$1,$6,$7,$8,$9,0*
20,1,$1+$1,$8,$9,$2,$3,0*%
G04 Aperture macros list end*
%TA.AperFunction,ComponentPad*%
%ADD10C,1.500000*%
%TD*%
%TA.AperFunction,SMDPad,CuDef*%
%ADD11RoundRect,0.250000X0.625000X-0.400000X0.625000X0.400000X-0.625000X0.400000X-0.625000X-0.400000X0*%
%TD*%
%TA.AperFunction,SMDPad,CuDef*%
%ADD12RoundRect,0.150000X-0.150000X-0.750000X0.150000X-0.750000X0.150000X0.750000X-0.150000X0.750000X0*%
%TD*%
%TA.AperFunction,SMDPad,CuDef*%
%ADD13RoundRect,0.250000X-1.050000X-1.250000X1.050000X-1.250000X1.050000X1.250000X-1.050000X1.250000X0*%
%TD*%
%TA.AperFunction,SMDPad,CuDef*%
%ADD14RoundRect,0.250000X-0.400000X-0.625000X0.400000X-0.625000X0.400000X0.625000X-0.400000X0.625000X0*%
%TD*%
%TA.AperFunction,SMDPad,CuDef*%
%ADD15C,0.500000*%
%TD*%
%TA.AperFunction,Conductor*%
%ADD16C,0.300000*%
%TD*%
G04 APERTURE END LIST*
D10*
%TO.P,U5,A*%
%TO.N,Net-(R10-Pad1)*%
X92470000Y-83350000D03*
%TO.P,U5,CATH*%
%TO.N,GND*%
X89930000Y-83350000D03*
%TO.P,U5,COLL*%
%TO.N,/A4_32*%
X92470000Y-77850000D03*
%TO.P,U5,E*%
%TO.N,GND*%
X89930000Y-77850000D03*
%TD*%
%TO.P,U3,A*%
%TO.N,Net-(R6-Pad1)*%
X117470000Y-83350000D03*
%TO.P,U3,CATH*%
%TO.N,GND*%
X114930000Y-83350000D03*
%TO.P,U3,COLL*%
%TO.N,/A2_34*%
X117470000Y-77850000D03*
%TO.P,U3,E*%
%TO.N,GND*%
X114930000Y-77850000D03*
%TD*%
%TO.P,U4,A*%
%TO.N,Net-(R8-Pad1)*%
X105670000Y-83350000D03*
%TO.P,U4,CATH*%
%TO.N,GND*%
X103130000Y-83350000D03*
%TO.P,U4,COLL*%
%TO.N,/A3_35*%
X105670000Y-77850000D03*
%TO.P,U4,E*%
%TO.N,GND*%
X103130000Y-77850000D03*
%TD*%
%TO.P,U2,A*%
%TO.N,Net-(R4-Pad1)*%
X129270000Y-83350000D03*
%TO.P,U2,CATH*%
%TO.N,GND*%
X126730000Y-83350000D03*
%TO.P,U2,COLL*%
%TO.N,/A1_39*%
X129270000Y-77850000D03*
%TO.P,U2,E*%
%TO.N,GND*%
X126730000Y-77850000D03*
%TD*%
%TO.P,U1,A*%
%TO.N,Net-(R2-Pad1)*%
X142470000Y-83350000D03*
%TO.P,U1,CATH*%
%TO.N,GND*%
X139930000Y-83350000D03*
%TO.P,U1,COLL*%
%TO.N,/A0_36*%
X142470000Y-77850000D03*
%TO.P,U1,E*%
%TO.N,GND*%
X139930000Y-77850000D03*
%TD*%
D11*
%TO.P,R7,1*%
%TO.N,+3V3*%
X99700000Y-78550000D03*
%TO.P,R7,2*%
%TO.N,/A3_35*%
X99700000Y-75450000D03*
%TD*%
%TO.P,R2,1*%
%TO.N,Net-(R2-Pad1)*%
X136400000Y-83950000D03*
%TO.P,R2,2*%
%TO.N,+3V3*%
X136400000Y-80850000D03*
%TD*%
D12*
%TO.P,J2,1,Pin_1_1*%
%TO.N,/A4_32*%
X112500000Y-72789168D03*
%TO.P,J2,2,Pin_2_2*%
%TO.N,/A3_35*%
X113500000Y-72789167D03*
%TO.P,J2,3,Pin_3_3*%
%TO.N,/A2_34*%
X114500000Y-72789168D03*
%TO.P,J2,4,Pin_4_4*%
%TO.N,/A1_39*%
X115500000Y-72789168D03*
%TO.P,J2,5,Pin_5_5*%
%TO.N,/A0_36*%
X116500000Y-72789168D03*
%TO.P,J2,6,Pin_6_6*%
%TO.N,GND*%
X117500000Y-72789168D03*
%TO.P,J2,7,Pin_7_7*%
%TO.N,+3V3*%
X118500000Y-72789167D03*
%TO.P,J2,8,Pin_8_8*%
X119500000Y-72789168D03*
D13*
%TO.P,J2,MP*%
%TO.N,N/C*%
X110150000Y-70619168D03*
X121850000Y-70619168D03*
%TD*%
D14*
%TO.P,R5,1*%
%TO.N,+3V3*%
X117100000Y-88200000D03*
%TO.P,R5,2*%
%TO.N,/A2_34*%
X120200000Y-88200000D03*
%TD*%
D11*
%TO.P,R9,1*%
%TO.N,+3V3*%
X96000000Y-78550000D03*
%TO.P,R9,2*%
%TO.N,/A4_32*%
X96000000Y-75450000D03*
%TD*%
D15*
%TO.P,REF\u002A\u002A,*%
%TO.N,*%
X145440000Y-90610000D03*
%TD*%
D11*
%TO.P,R4,1*%
%TO.N,Net-(R4-Pad1)*%
X132800000Y-84000000D03*
%TO.P,R4,2*%
%TO.N,+3V3*%
X132800000Y-80900000D03*
%TD*%
%TO.P,R3,1*%
%TO.N,+3V3*%
X132800000Y-78750000D03*
%TO.P,R3,2*%
%TO.N,/A1_39*%
X132800000Y-75650000D03*
%TD*%
%TO.P,R1,1*%
%TO.N,+3V3*%
X136400000Y-78750000D03*
%TO.P,R1,2*%
%TO.N,/A0_36*%
X136400000Y-75650000D03*
%TD*%
%TO.P,R8,1*%
%TO.N,Net-(R8-Pad1)*%
X99700000Y-83750000D03*
%TO.P,R8,2*%
%TO.N,+3V3*%
X99700000Y-80650000D03*
%TD*%
D14*
%TO.P,R6,1*%
%TO.N,Net-(R6-Pad1)*%
X111800000Y-88200000D03*
%TO.P,R6,2*%
%TO.N,+3V3*%
X114900000Y-88200000D03*
%TD*%
D11*
%TO.P,R10,1*%
%TO.N,Net-(R10-Pad1)*%
X96000000Y-83750000D03*
%TO.P,R10,2*%
%TO.N,+3V3*%
X96000000Y-80650000D03*
%TD*%
D15*
%TO.P,REF\u002A\u002A,*%
%TO.N,*%
X92550000Y-71850000D03*
%TD*%
%TO.N,*%
D16*
X142525000Y-81250000D02*
X142790000Y-80985000D01*
X142790000Y-80985000D02*
X142455000Y-81320000D01*
%TO.N,Net-(R10-Pad1)*%
X92470000Y-83350000D02*
X95600000Y-83350000D01*
X95600000Y-83350000D02*
X96000000Y-83750000D01*
%TO.N,GND*%
X102730000Y-83750000D02*
X103130000Y-83350000D01*
%TO.N,/A4_32*%
X94870000Y-75450000D02*
X92470000Y-77850000D01*
X96000000Y-74000000D02*
X96000000Y-75450000D01*
X92470000Y-77850000D02*
X92470000Y-77430000D01*
X96000000Y-75450000D02*
X94870000Y-75450000D01*
X112500000Y-72789168D02*
X97210833Y-72789168D01*
X97210833Y-72789168D02*
X96924879Y-73075122D01*
X96924879Y-73075122D02*
X96000000Y-74000000D01*
%TO.N,Net-(R6-Pad1)*%
X116700000Y-85300000D02*
X117470000Y-84530000D01*
X111900000Y-88300000D02*
X111800000Y-88200000D01*
X117470000Y-84530000D02*
X117470000Y-83350000D01*
X111800000Y-88200000D02*
X111800000Y-86600000D01*
X113100000Y-85300000D02*
X116700000Y-85300000D01*
X111800000Y-86600000D02*
X113100000Y-85300000D01*
%TO.N,/A2_34*%
X120200000Y-78900000D02*
X120200000Y-88200000D01*
X114500000Y-72789168D02*
X114500000Y-74880000D01*
X114500000Y-74880000D02*
X117470000Y-77850000D01*
X119150000Y-77850000D02*
X120200000Y-78900000D01*
X117470000Y-77770000D02*
X117470000Y-77850000D01*
X117470000Y-77850000D02*
X119150000Y-77850000D01*
%TO.N,Net-(R8-Pad1)*%
X99700000Y-83750000D02*
X99700000Y-83800000D01*
X99700000Y-83800000D02*
X100800000Y-84900000D01*
X100800000Y-84900000D02*
X104120000Y-84900000D01*
X104120000Y-84900000D02*
X105670000Y-83350000D01*
%TO.N,/A3_35*%
X113500000Y-73821182D02*
X112821182Y-74500000D01*
X99700000Y-74900000D02*
X100100000Y-74500000D01*
X113500000Y-72789167D02*
X113500000Y-73821182D01*
X105670000Y-77850000D02*
X105670000Y-76330000D01*
X105670000Y-76330000D02*
X107500000Y-74500000D01*
X99700000Y-75450000D02*
X99700000Y-74900000D01*
X112821182Y-74500000D02*
X107500000Y-74500000D01*
X100100000Y-74500000D02*
X107500000Y-74500000D01*
%TO.N,Net-(R4-Pad1)*%
X129270000Y-83350000D02*
X132150000Y-83350000D01*
X132150000Y-83350000D02*
X132800000Y-84000000D01*
%TO.N,/A1_39*%
X130575000Y-75650000D02*
X132800000Y-75650000D01*
X115500000Y-72789168D02*
X115500000Y-73421957D01*
X129270000Y-77850000D02*
X129270000Y-76955000D01*
X129270000Y-76955000D02*
X130575000Y-75650000D01*
X129270000Y-76870000D02*
X129270000Y-77850000D01*
X115500000Y-73421957D02*
X116989209Y-74911166D01*
X127311166Y-74911166D02*
X129270000Y-76870000D01*
X116989209Y-74911166D02*
X127311166Y-74911166D01*
%TO.N,Net-(R2-Pad1)*%
X136400000Y-83950000D02*
X136400000Y-84300000D01*
X137000000Y-84900000D02*
X141900000Y-84900000D01*
X141900000Y-84900000D02*
X142470000Y-84330000D01*
X136400000Y-84300000D02*
X137000000Y-84900000D01*
X142470000Y-84330000D02*
X142470000Y-83350000D01*
%TO.N,/A0_36*%
X137150000Y-74900000D02*
X136400000Y-75650000D01*
X142470000Y-77850000D02*
X142470000Y-76770000D01*
X140600000Y-74900000D02*
X137150000Y-74900000D01*
X117221999Y-74411166D02*
X135161166Y-74411166D01*
X135161166Y-74411166D02*
X136400000Y-75650000D01*
X142470000Y-76770000D02*
X140600000Y-74900000D01*
X116500000Y-73689167D02*
X117221999Y-74411166D01*
X116500000Y-72789168D02*
X116500000Y-73689167D01*
%TO.N,+3V3*%
X117100000Y-88200000D02*
X117100000Y-89000000D01*
X99700000Y-78550000D02*
X99700000Y-80650000D01*
X134400000Y-84300000D02*
X134400000Y-81000000D01*
X134400000Y-81000000D02*
X134500000Y-80900000D01*
X114900000Y-89300000D02*
X114900000Y-88200000D01*
X129730001Y-86069999D02*
X133530001Y-86069999D01*
X118700000Y-90600000D02*
X125200000Y-90600000D01*
X118500001Y-72789168D02*
X119500000Y-72789168D01*
X117100000Y-89000000D02*
X118700000Y-90600000D01*
X144900001Y-84899999D02*
X143700000Y-86100000D01*
X141500000Y-73800000D02*
X144900001Y-77200001D01*
X114900000Y-88200000D02*
X117100000Y-88200000D01*
X97900000Y-85000000D02*
X97900000Y-82550000D01*
X118500000Y-72789167D02*
X118500001Y-72789168D01*
X134400000Y-85085660D02*
X134400000Y-84300000D01*
X132800000Y-78750000D02*
X132800000Y-80900000D01*
X135414340Y-86100000D02*
X134400000Y-85085660D01*
X99700000Y-80650000D02*
X99450000Y-80650000D01*
X125200000Y-90600000D02*
X129730001Y-86069999D01*
X143700000Y-86100000D02*
X135414340Y-86100000D01*
X119500000Y-72789168D02*
X120510832Y-73800000D01*
X97900000Y-82550000D02*
X96000000Y-80650000D01*
X113600000Y-90600000D02*
X107900000Y-90600000D01*
X120510832Y-73800000D02*
X141500000Y-73800000D01*
X107900000Y-90600000D02*
X103100000Y-85800000D01*
X99450000Y-80650000D02*
X97900000Y-82200000D01*
X97900000Y-82200000D02*
X97900000Y-84900000D01*
X98700000Y-85800000D02*
X97900000Y-85000000D01*
X96000000Y-78550000D02*
X96000000Y-80650000D01*
X144900001Y-77200001D02*
X144900001Y-84899999D01*
X133530001Y-86069999D02*
X134400000Y-85200000D01*
X136400000Y-80850000D02*
X136350000Y-80900000D01*
X132800000Y-80900000D02*
X134500000Y-80900000D01*
X136400000Y-80850000D02*
X136400000Y-78750000D01*
X134400000Y-85200000D02*
X134400000Y-84300000D01*
X103100000Y-85800000D02*
X98700000Y-85800000D01*
X136350000Y-80900000D02*
X134500000Y-80900000D01*
X113600000Y-90600000D02*
X114900000Y-89300000D01*
%TD*%
%TA.AperFunction,Conductor*%
%TO.N,GND*%
G36*
X145311979Y-67900828D02*
G01*
X145311985Y-67900830D01*
X145360036Y-67900830D01*
X145369287Y-67901169D01*
X145581265Y-67916778D01*
X145592483Y-67918112D01*
X145639276Y-67925822D01*
X145646319Y-67927190D01*
X145829302Y-67968193D01*
X145842144Y-67971795D01*
X145875669Y-67983149D01*
X145880425Y-67984869D01*
X146067765Y-68056965D01*
X146081720Y-68063338D01*
X146082524Y-68063767D01*
X146085223Y-68065247D01*
X146281720Y-68176273D01*
X146297113Y-68186530D01*
X146475782Y-68325552D01*
X146489508Y-68337952D01*
X146645903Y-68501639D01*
X146657663Y-68515913D01*
X146718965Y-68602569D01*
X146787925Y-68700050D01*
X146789705Y-68702635D01*
X146790263Y-68703467D01*
X146798028Y-68716726D01*
X146888629Y-68895642D01*
X146890857Y-68900273D01*
X146905584Y-68932558D01*
X146910479Y-68944999D01*
X146969749Y-69122777D01*
X146971829Y-69129665D01*
X146984258Y-69175520D01*
X146986724Y-69186560D01*
X147022683Y-69390082D01*
X147024599Y-69410809D01*
X147038834Y-70910029D01*
X147038840Y-70911225D01*
X147038840Y-83787519D01*
X147022932Y-90776536D01*
X147021380Y-90795964D01*
X147017938Y-90817691D01*
X147016611Y-90824759D01*
X146982018Y-90983784D01*
X146978730Y-90995939D01*
X146969045Y-91025745D01*
X146967267Y-91030840D01*
X146907229Y-91191806D01*
X146901440Y-91204978D01*
X146896610Y-91214457D01*
X146894932Y-91217637D01*
X146805116Y-91382123D01*
X146795396Y-91397247D01*
X146677984Y-91554092D01*
X146666211Y-91567678D01*
X146527678Y-91706211D01*
X146514092Y-91717984D01*
X146357247Y-91835396D01*
X146342123Y-91845116D01*
X146177637Y-91934932D01*
X146174457Y-91936610D01*
X146164978Y-91941440D01*
X146151806Y-91947229D01*
X145990840Y-92007267D01*
X145985747Y-92009044D01*
X145955943Y-92018729D01*
X145943786Y-92022018D01*
X145784743Y-92056615D01*
X145777674Y-92057942D01*
X145738686Y-92064118D01*
X145727961Y-92065349D01*
X145663505Y-92069959D01*
X145654578Y-92070280D01*
X118211897Y-92083800D01*
X118211858Y-92083800D01*
X86809793Y-92089500D01*
X86629501Y-92089500D01*
X86620512Y-92089179D01*
X86608907Y-92088348D01*
X86436318Y-92076004D01*
X86425598Y-92074774D01*
X86386766Y-92068624D01*
X86379692Y-92067295D01*
X86220447Y-92032653D01*
X86208297Y-92029367D01*
X86192998Y-92024396D01*
X86178849Y-92019799D01*
X86173764Y-92018026D01*
X86012417Y-91957846D01*
X85999240Y-91952053D01*
X85990286Y-91947490D01*
X85987111Y-91945815D01*
X85822216Y-91855776D01*
X85807092Y-91846056D01*
X85650247Y-91728644D01*
X85636661Y-91716871D01*
X85498128Y-91578338D01*
X85486355Y-91564752D01*
X85368941Y-91407904D01*
X85359222Y-91392781D01*
X85308846Y-91300526D01*
X85293438Y-91241187D01*
X85290859Y-90930046D01*
X85247458Y-85693064D01*
X85227221Y-83251061D01*
X91465500Y-83251061D01*
X91465500Y-83448938D01*
X91504102Y-83642997D01*
X91504103Y-83643002D01*
X91579824Y-83825809D01*
X91689754Y-83990331D01*
X91829669Y-84130246D01*
X91994191Y-84240176D01*
X92176998Y-84315897D01*
X92371065Y-84354500D01*
X92568935Y-84354500D01*
X92763002Y-84315897D01*
X92945809Y-84240176D01*
X93110331Y-84130246D01*
X93250246Y-83990331D01*
X93360176Y-83825809D01*
X93360177Y-83825804D01*
X93362692Y-83821102D01*
X93412445Y-83770455D01*
X93473813Y-83754500D01*
X94744501Y-83754500D01*
X94812622Y-83774502D01*
X94859115Y-83828158D01*
X94870501Y-83880500D01*
X94870501Y-84198246D01*
X94870502Y-84198270D01*
X94876959Y-84258339D01*
X94876959Y-84258341D01*
X94927657Y-84394266D01*
X94947955Y-84421381D01*
X95014596Y-84510404D01*
X95130733Y-84597342D01*
X95266658Y-84648040D01*
X95326745Y-84654500D01*
X96673254Y-84654499D01*
X96733342Y-84648040D01*
X96869267Y-84597342D01*
X96985404Y-84510404D01*
X97072342Y-84394267D01*
X97123040Y-84258342D01*
X97129500Y-84198255D01*
X97129499Y-83301746D01*
X97123040Y-83241658D01*
X97072342Y-83105733D01*
X96985404Y-82989596D01*
X96869267Y-82902658D01*
X96869265Y-82902657D01*
X96869266Y-82902657D01*
X96733349Y-82851962D01*
X96733344Y-82851960D01*
X96733342Y-82851960D01*
X96703298Y-82848730D01*
X96673256Y-82845500D01*
X95326753Y-82845500D01*
X95326729Y-82845502D01*
X95266660Y-82851959D01*
X95266658Y-82851959D01*
X95130734Y-82902657D01*
X95107074Y-82920369D01*
X95040554Y-82945179D01*
X95031566Y-82945500D01*
X93473813Y-82945500D01*
X93405692Y-82925498D01*
X93362692Y-82878898D01*
X93360176Y-82874191D01*
X93290383Y-82769739D01*
X93250246Y-82709669D01*
X93110331Y-82569754D01*
X92945809Y-82459824D01*
X92849035Y-82419739D01*
X92763005Y-82384104D01*
X92763002Y-82384103D01*
X92568938Y-82345500D01*
X92568935Y-82345500D01*
X92371065Y-82345500D01*
X92371061Y-82345500D01*
X92176997Y-82384103D01*
X92176994Y-82384104D01*
X91994190Y-82459824D01*
X91829673Y-82569751D01*
X91829666Y-82569756D01*
X91689756Y-82709666D01*
X91689751Y-82709673D01*
X91579824Y-82874190D01*
X91504104Y-83056994D01*
X91504103Y-83056997D01*
X91465500Y-83251061D01*
X85227221Y-83251061D01*
X85227178Y-83245919D01*
X85204271Y-80481908D01*
X87799500Y-80481908D01*
X87799500Y-80718092D01*
X87836447Y-80951368D01*
X87909432Y-81175992D01*
X88004401Y-81362379D01*
X88016659Y-81386436D01*
X88155484Y-81577512D01*
X88322487Y-81744515D01*
X88327339Y-81748040D01*
X88513567Y-81883343D01*
X88724008Y-81990568D01*
X88948632Y-82063553D01*
X89181908Y-82100500D01*
X89181911Y-82100500D01*
X89418089Y-82100500D01*
X89418092Y-82100500D01*
X89651368Y-82063553D01*
X89875992Y-81990568D01*
X90086433Y-81883343D01*
X90277510Y-81744517D01*
X90444517Y-81577510D01*
X90583343Y-81386433D01*
X90690568Y-81175992D01*
X90763553Y-80951368D01*
X90800500Y-80718092D01*
X90800500Y-80481908D01*
X91599500Y-80481908D01*
X91599500Y-80718092D01*
X91636447Y-80951368D01*
X91709432Y-81175992D01*
X91804401Y-81362379D01*
X91816659Y-81386436D01*
X91955484Y-81577512D01*
X92122487Y-81744515D01*
X92127339Y-81748040D01*
X92313567Y-81883343D01*
X92524008Y-81990568D01*
X92748632Y-82063553D01*
X92981908Y-82100500D01*
X92981911Y-82100500D01*
X93218089Y-82100500D01*
X93218092Y-82100500D01*
X93451368Y-82063553D01*
X93675992Y-81990568D01*
X93886433Y-81883343D01*
X94077510Y-81744517D01*
X94244517Y-81577510D01*
X94383343Y-81386433D01*
X94490568Y-81175992D01*
X94563553Y-80951368D01*
X94600500Y-80718092D01*
X94600500Y-80481908D01*
X94563553Y-80248632D01*
X94490568Y-80024008D01*
X94383343Y-79813567D01*
X94282305Y-79674501D01*
X94244515Y-79622487D01*
X94077512Y-79455484D01*
X93886436Y-79316659D01*
X93886435Y-79316658D01*
X93886433Y-79316657D01*
X93675992Y-79209432D01*
X93451368Y-79136447D01*
X93218092Y-79099500D01*
X92981908Y-79099500D01*
X92748632Y-79136447D01*
X92748629Y-79136447D01*
X92748628Y-79136448D01*
X92524008Y-79209432D01*
X92524006Y-79209433D01*
X92313563Y-79316659D01*
X92122487Y-79455484D01*
X91955484Y-79622487D01*
X91816659Y-79813563D01*
X91709433Y-80024006D01*
X91709432Y-80024008D01*
X91640851Y-80235079D01*
X91636447Y-80248632D01*
X91599500Y-80481908D01*
X90800500Y-80481908D01*
X90763553Y-80248632D01*
X90690568Y-80024008D01*
X90583343Y-79813567D01*
X90482305Y-79674501D01*
X90444515Y-79622487D01*
X90277512Y-79455484D01*
X90086436Y-79316659D01*
X90086435Y-79316658D01*
X90086433Y-79316657D01*
X89875992Y-79209432D01*
X89651368Y-79136447D01*
X89418092Y-79099500D01*
X89181908Y-79099500D01*
X88948632Y-79136447D01*
X88948629Y-79136447D01*
X88948628Y-79136448D01*
X88724008Y-79209432D01*
X88724006Y-79209433D01*
X88513563Y-79316659D01*
X88322487Y-79455484D01*
X88155484Y-79622487D01*
X88016659Y-79813563D01*
X87909433Y-80024006D01*
X87909432Y-80024008D01*
X87840851Y-80235079D01*
X87836447Y-80248632D01*
X87799500Y-80481908D01*
X85204271Y-80481908D01*
X85204239Y-80478001D01*
X85190464Y-78815895D01*
X85181639Y-77751061D01*
X91465500Y-77751061D01*
X91465500Y-77948938D01*
X91504103Y-78143002D01*
X91504104Y-78143005D01*
X91544968Y-78241660D01*
X91579824Y-78325809D01*
X91689754Y-78490331D01*
X91829669Y-78630246D01*
X91994191Y-78740176D01*
X92176998Y-78815897D01*
X92371065Y-78854500D01*
X92568935Y-78854500D01*
X92763002Y-78815897D01*
X92945809Y-78740176D01*
X93110331Y-78630246D01*
X93250246Y-78490331D01*
X93360176Y-78325809D01*
X93435897Y-78143002D01*
X93474500Y-77948935D01*
X93474500Y-77751065D01*
X93435897Y-77556998D01*
X93435896Y-77556995D01*
X93434349Y-77551896D01*
X93433713Y-77480902D01*
X93465825Y-77426223D01*
X94769236Y-76122812D01*
X94831546Y-76088788D01*
X94902361Y-76093853D01*
X94959197Y-76136400D01*
X95014595Y-76210403D01*
X95014596Y-76210404D01*
X95130733Y-76297342D01*
X95266658Y-76348040D01*
X95326745Y-76354500D01*
X96673254Y-76354499D01*
X96733342Y-76348040D01*
X96869267Y-76297342D01*
X96985404Y-76210404D01*
X97072342Y-76094267D01*
X97123040Y-75958342D01*
X97129500Y-75898255D01*
X97129499Y-75001746D01*
X97123040Y-74941658D01*
X97072342Y-74805733D01*
X96985404Y-74689596D01*
X96869267Y-74602658D01*
X96869265Y-74602657D01*
X96869266Y-74602657D01*
X96733349Y-74551962D01*
X96733344Y-74551960D01*
X96733342Y-74551960D01*
X96725831Y-74551152D01*
X96673262Y-74545500D01*
X96673255Y-74545500D01*
X96530500Y-74545500D01*
X96462379Y-74525498D01*
X96415886Y-74471842D01*
X96404500Y-74419500D01*
X96404500Y-74219740D01*
X96424502Y-74151619D01*
X96441405Y-74130645D01*
X97341477Y-73230573D01*
X97403789Y-73196547D01*
X97430572Y-73193668D01*
X111819500Y-73193668D01*
X111887621Y-73213670D01*
X111934114Y-73267326D01*
X111945500Y-73319668D01*
X111945500Y-73571000D01*
X111960501Y-73665721D01*
X112018673Y-73779891D01*
X112116288Y-73877506D01*
X112114381Y-73879412D01*
X112148599Y-73923788D01*
X112154673Y-73994524D01*
X112121540Y-74057316D01*
X112059720Y-74092226D01*
X112031183Y-74095500D01*
X107553253Y-74095500D01*
X100046747Y-74095500D01*
X99965608Y-74117240D01*
X99965605Y-74117240D01*
X99943867Y-74123066D01*
X99851631Y-74176319D01*
X99519353Y-74508596D01*
X99457041Y-74542621D01*
X99430258Y-74545500D01*
X99026753Y-74545500D01*
X99026729Y-74545502D01*
X98966660Y-74551959D01*
X98966658Y-74551959D01*
X98830733Y-74602657D01*
X98714596Y-74689596D01*
X98627657Y-74805734D01*
X98576962Y-74941650D01*
X98576960Y-74941658D01*
X98570500Y-75001737D01*
X98570500Y-75898246D01*
X98570502Y-75898270D01*
X98576959Y-75958339D01*
X98576959Y-75958341D01*
X98627657Y-76094266D01*
X98649028Y-76122814D01*
X98714596Y-76210404D01*
X98830733Y-76297342D01*
X98966658Y-76348040D01*
X99026745Y-76354500D01*
X100373254Y-76354499D01*
X100433342Y-76348040D01*
X100569267Y-76297342D01*
X100685404Y-76210404D01*
X100772342Y-76094267D01*
X100823040Y-75958342D01*
X100829500Y-75898255D01*
X100829500Y-75876082D01*
X101199500Y-75876082D01*
X101199500Y-76023918D01*
X101213494Y-76094267D01*
X101228342Y-76168913D01*
X101228343Y-76168916D01*
X101280264Y-76294265D01*
X101284916Y-76305495D01*
X101367049Y-76428416D01*
X101471584Y-76532951D01*
X101594505Y-76615084D01*
X101731087Y-76671658D01*
X101876082Y-76700500D01*
X101876087Y-76700500D01*
X102023913Y-76700500D01*
X102023918Y-76700500D01*
X102168913Y-76671658D01*
X102305495Y-76615084D01*
X102428416Y-76532951D01*
X102532951Y-76428416D01*
X102615084Y-76305495D01*
X102671658Y-76168913D01*
X102700500Y-76023918D01*
X102700500Y-75876082D01*
X102671658Y-75731087D01*
X102615084Y-75594505D01*
X102532951Y-75471584D01*
X102428416Y-75367049D01*
X102305495Y-75284916D01*
X102276884Y-75273065D01*
X102168916Y-75228343D01*
X102168913Y-75228342D01*
X102023918Y-75199500D01*
X101876082Y-75199500D01*
X101822437Y-75210171D01*
X101731086Y-75228342D01*
X101731083Y-75228343D01*
X101594504Y-75284916D01*
X101471588Y-75367046D01*
X101471581Y-75367051D01*
X101367051Y-75471581D01*
X101367046Y-75471588D01*
X101284916Y-75594504D01*
X101228343Y-75731083D01*
X101228342Y-75731086D01*
X101228342Y-75731087D01*
X101199500Y-75876082D01*
X100829500Y-75876082D01*
X100829499Y-75030499D01*
X100849501Y-74962379D01*
X100903157Y-74915886D01*
X100955499Y-74904500D01*
X106219261Y-74904500D01*
X106287382Y-74924502D01*
X106333875Y-74978158D01*
X106343979Y-75048432D01*
X106314485Y-75113012D01*
X106308356Y-75119595D01*
X105421631Y-76006320D01*
X105383976Y-76043975D01*
X105346321Y-76081629D01*
X105346317Y-76081634D01*
X105293068Y-76173864D01*
X105293065Y-76173871D01*
X105275589Y-76239092D01*
X105272304Y-76251356D01*
X105265500Y-76276748D01*
X105265500Y-76846186D01*
X105245498Y-76914307D01*
X105198906Y-76957302D01*
X105194200Y-76959817D01*
X105029673Y-77069751D01*
X105029666Y-77069756D01*
X104889756Y-77209666D01*
X104889751Y-77209673D01*
X104779824Y-77374190D01*
X104704104Y-77556994D01*
X104704103Y-77556997D01*
X104665500Y-77751061D01*
X104665500Y-77948938D01*
X104704103Y-78143002D01*
X104704104Y-78143005D01*
X104744968Y-78241660D01*
X104779824Y-78325809D01*
X104889754Y-78490331D01*
X105029669Y-78630246D01*
X105194191Y-78740176D01*
X105376998Y-78815897D01*
X105571065Y-78854500D01*
X105768935Y-78854500D01*
X105963002Y-78815897D01*
X106145809Y-78740176D01*
X106310331Y-78630246D01*
X106450246Y-78490331D01*
X106560176Y-78325809D01*
X106635897Y-78143002D01*
X106674500Y-77948935D01*
X106674500Y-77751065D01*
X106635897Y-77556998D01*
X106560176Y-77374191D01*
X106450246Y-77209669D01*
X106310331Y-77069754D01*
X106213447Y-77005018D01*
X106145799Y-76959817D01*
X106141094Y-76957302D01*
X106090450Y-76907546D01*
X106074500Y-76846186D01*
X106074500Y-76549739D01*
X106094502Y-76481618D01*
X106111405Y-76460644D01*
X107630644Y-74941405D01*
X107692956Y-74907379D01*
X107719739Y-74904500D01*
X112874433Y-74904500D01*
X112874435Y-74904500D01*
X112977313Y-74876934D01*
X113069551Y-74823680D01*
X113823681Y-74069551D01*
X113860380Y-74005984D01*
X113911763Y-73956991D01*
X113981476Y-73943554D01*
X114047387Y-73969941D01*
X114088570Y-74027773D01*
X114095500Y-74068984D01*
X114095500Y-74826747D01*
X114095500Y-74933253D01*
X114113934Y-75002050D01*
X114123065Y-75036128D01*
X114123069Y-75036137D01*
X114131780Y-75051225D01*
X114148517Y-75120221D01*
X114125295Y-75187312D01*
X114069487Y-75231198D01*
X113998812Y-75237946D01*
X113974443Y-75230632D01*
X113968920Y-75228344D01*
X113968913Y-75228342D01*
X113823918Y-75199500D01*
X113676082Y-75199500D01*
X113622437Y-75210171D01*
X113531086Y-75228342D01*
X113531083Y-75228343D01*
X113394504Y-75284916D01*
X113271588Y-75367046D01*
X113271581Y-75367051D01*
X113167051Y-75471581D01*
X113167046Y-75471588D01*
X113084916Y-75594504D01*
X113028343Y-75731083D01*
X113028342Y-75731086D01*
X113028342Y-75731087D01*
X112999500Y-75876082D01*
X112999500Y-76023918D01*
X113013494Y-76094267D01*
X113028342Y-76168913D01*
X113028343Y-76168916D01*
X113080264Y-76294265D01*
X113084916Y-76305495D01*
X113167049Y-76428416D01*
X113271584Y-76532951D01*
X113394505Y-76615084D01*
X113531087Y-76671658D01*
X113676082Y-76700500D01*
X113676087Y-76700500D01*
X113823913Y-76700500D01*
X113823918Y-76700500D01*
X113968913Y-76671658D01*
X114105495Y-76615084D01*
X114228416Y-76532951D01*
X114332951Y-76428416D01*
X114415084Y-76305495D01*
X114471658Y-76168913D01*
X114500500Y-76023918D01*
X114500500Y-75876082D01*
X114476368Y-75754766D01*
X114482696Y-75684055D01*
X114526250Y-75627988D01*
X114593202Y-75604368D01*
X114662296Y-75620695D01*
X114689042Y-75641092D01*
X116474172Y-77426221D01*
X116508197Y-77488533D01*
X116505653Y-77551886D01*
X116504104Y-77556990D01*
X116465500Y-77751061D01*
X116465500Y-77948938D01*
X116504103Y-78143002D01*
X116504104Y-78143005D01*
X116544968Y-78241660D01*
X116579824Y-78325809D01*
X116689754Y-78490331D01*
X116829669Y-78630246D01*
X116994191Y-78740176D01*
X117176998Y-78815897D01*
X117371065Y-78854500D01*
X117568935Y-78854500D01*
X117763002Y-78815897D01*
X117945809Y-78740176D01*
X118110331Y-78630246D01*
X118250246Y-78490331D01*
X118360176Y-78325809D01*
X118360177Y-78325804D01*
X118362692Y-78321102D01*
X118412445Y-78270455D01*
X118473813Y-78254500D01*
X118930261Y-78254500D01*
X118998382Y-78274502D01*
X119019356Y-78291405D01*
X119758595Y-79030644D01*
X119792621Y-79092956D01*
X119795500Y-79119739D01*
X119795500Y-80166958D01*
X119775498Y-80235079D01*
X119721842Y-80281572D01*
X119651568Y-80291676D01*
X119586988Y-80262182D01*
X119549667Y-80205895D01*
X119530227Y-80146066D01*
X119490568Y-80024008D01*
X119383343Y-79813567D01*
X119282305Y-79674501D01*
X119244515Y-79622487D01*
X119077512Y-79455484D01*
X118886436Y-79316659D01*
X118886435Y-79316658D01*
X118886433Y-79316657D01*
X118675992Y-79209432D01*
X118451368Y-79136447D01*
X118218092Y-79099500D01*
X117981908Y-79099500D01*
X117748632Y-79136447D01*
X117748629Y-79136447D01*
X117748628Y-79136448D01*
X117524008Y-79209432D01*
X117524006Y-79209433D01*
X117313563Y-79316659D01*
X117122487Y-79455484D01*
X116955484Y-79622487D01*
X116816659Y-79813563D01*
X116709433Y-80024006D01*
X116709432Y-80024008D01*
X116640851Y-80235079D01*
X116636447Y-80248632D01*
X116599500Y-80481908D01*
X116599500Y-80718092D01*
X116636447Y-80951368D01*
X116709432Y-81175992D01*
X116804401Y-81362379D01*
X116816659Y-81386436D01*
X116955484Y-81577512D01*
X117122487Y-81744515D01*
X117127339Y-81748040D01*
X117313567Y-81883343D01*
X117524008Y-81990568D01*
X117748632Y-82063553D01*
X117981908Y-82100500D01*
X117981911Y-82100500D01*
X118218089Y-82100500D01*
X118218092Y-82100500D01*
X118451368Y-82063553D01*
X118675992Y-81990568D01*
X118886433Y-81883343D01*
X119077510Y-81744517D01*
X119244517Y-81577510D01*
X119383343Y-81386433D01*
X119490568Y-81175992D01*
X119549667Y-80994105D01*
X119589741Y-80935499D01*
X119655137Y-80907862D01*
X119725094Y-80919969D01*
X119777400Y-80967975D01*
X119795500Y-81033041D01*
X119795500Y-86952725D01*
X119775498Y-87020846D01*
X119721842Y-87067339D01*
X119698486Y-87075346D01*
X119691656Y-87076960D01*
X119555733Y-87127657D01*
X119439596Y-87214596D01*
X119352657Y-87330734D01*
X119301962Y-87466650D01*
X119301960Y-87466658D01*
X119295500Y-87526737D01*
X119295500Y-88873246D01*
X119295502Y-88873270D01*
X119301959Y-88933339D01*
X119301959Y-88933341D01*
X119352657Y-89069266D01*
X119360403Y-89079613D01*
X119439596Y-89185404D01*
X119555733Y-89272342D01*
X119691658Y-89323040D01*
X119751745Y-89329500D01*
X120648254Y-89329499D01*
X120708342Y-89323040D01*
X120844267Y-89272342D01*
X120960404Y-89185404D01*
X121047342Y-89069267D01*
X121098040Y-88933342D01*
X121104500Y-88873255D01*
X121104499Y-87526746D01*
X121098040Y-87466658D01*
X121047342Y-87330733D01*
X120960404Y-87214596D01*
X120844267Y-87127658D01*
X120844265Y-87127657D01*
X120844266Y-87127657D01*
X120708346Y-87076961D01*
X120701524Y-87075349D01*
X120639829Y-87040217D01*
X120606921Y-86977308D01*
X120604500Y-86952726D01*
X120604500Y-80481908D01*
X124599500Y-80481908D01*
X124599500Y-80718092D01*
X124636447Y-80951368D01*
X124709432Y-81175992D01*
X124804401Y-81362379D01*
X124816659Y-81386436D01*
X124955484Y-81577512D01*
X125122487Y-81744515D01*
X125127339Y-81748040D01*
X125313567Y-81883343D01*
X125524008Y-81990568D01*
X125748632Y-82063553D01*
X125981908Y-82100500D01*
X125981911Y-82100500D01*
X126218089Y-82100500D01*
X126218092Y-82100500D01*
X126451368Y-82063553D01*
X126675992Y-81990568D01*
X126886433Y-81883343D01*
X127077510Y-81744517D01*
X127244517Y-81577510D01*
X127383343Y-81386433D01*
X127490568Y-81175992D01*
X127563553Y-80951368D01*
X127600500Y-80718092D01*
X127600500Y-80481908D01*
X128399500Y-80481908D01*
X128399500Y-80718092D01*
X128436447Y-80951368D01*
X128509432Y-81175992D01*
X128604401Y-81362379D01*
X128616659Y-81386436D01*
X128755484Y-81577512D01*
X128922487Y-81744515D01*
X128927339Y-81748040D01*
X129113567Y-81883343D01*
X129324008Y-81990568D01*
X129548632Y-82063553D01*
X129781908Y-82100500D01*
X129781911Y-82100500D01*
X130018089Y-82100500D01*
X130018092Y-82100500D01*
X130251368Y-82063553D01*
X130475992Y-81990568D01*
X130686433Y-81883343D01*
X130877510Y-81744517D01*
X131044517Y-81577510D01*
X131183343Y-81386433D01*
X131290568Y-81175992D01*
X131363553Y-80951368D01*
X131400500Y-80718092D01*
X131400500Y-80481908D01*
X131363553Y-80248632D01*
X131290568Y-80024008D01*
X131183343Y-79813567D01*
X131082305Y-79674501D01*
X131044515Y-79622487D01*
X130877512Y-79455484D01*
X130686436Y-79316659D01*
X130686435Y-79316658D01*
X130686433Y-79316657D01*
X130475992Y-79209432D01*
X130251368Y-79136447D01*
X130018092Y-79099500D01*
X129781908Y-79099500D01*
X129548632Y-79136447D01*
X129548629Y-79136447D01*
X129548628Y-79136448D01*
X129324008Y-79209432D01*
X129324006Y-79209433D01*
X129113563Y-79316659D01*
X128922487Y-79455484D01*
X128755484Y-79622487D01*
X128616659Y-79813563D01*
X128509433Y-80024006D01*
X128509432Y-80024008D01*
X128440851Y-80235079D01*
X128436447Y-80248632D01*
X128399500Y-80481908D01*
X127600500Y-80481908D01*
X127563553Y-80248632D01*
X127490568Y-80024008D01*
X127383343Y-79813567D01*
X127282305Y-79674501D01*
X127244515Y-79622487D01*
X127077512Y-79455484D01*
X126886436Y-79316659D01*
X126886435Y-79316658D01*
X126886433Y-79316657D01*
X126675992Y-79209432D01*
X126451368Y-79136447D01*
X126218092Y-79099500D01*
X125981908Y-79099500D01*
X125748632Y-79136447D01*
X125748629Y-79136447D01*
X125748628Y-79136448D01*
X125524008Y-79209432D01*
X125524006Y-79209433D01*
X125313563Y-79316659D01*
X125122487Y-79455484D01*
X124955484Y-79622487D01*
X124816659Y-79813563D01*
X124709433Y-80024006D01*
X124709432Y-80024008D01*
X124640851Y-80235079D01*
X124636447Y-80248632D01*
X124599500Y-80481908D01*
X120604500Y-80481908D01*
X120604500Y-78846748D01*
X120604500Y-78846747D01*
X120576934Y-78743869D01*
X120523680Y-78651631D01*
X120448369Y-78576320D01*
X119973778Y-78101729D01*
X119398375Y-77526325D01*
X119398365Y-77526317D01*
X119306135Y-77473068D01*
X119306132Y-77473067D01*
X119306131Y-77473066D01*
X119306129Y-77473065D01*
X119306128Y-77473065D01*
X119278561Y-77465678D01*
X119203253Y-77445500D01*
X119203251Y-77445500D01*
X118473813Y-77445500D01*
X118405692Y-77425498D01*
X118362692Y-77378898D01*
X118360176Y-77374191D01*
X118355739Y-77367550D01*
X118250246Y-77209669D01*
X118110331Y-77069754D01*
X117945809Y-76959824D01*
X117834311Y-76913640D01*
X117763005Y-76884104D01*
X117763002Y-76884103D01*
X117568938Y-76845500D01*
X117568935Y-76845500D01*
X117371065Y-76845500D01*
X117371061Y-76845500D01*
X117176990Y-76884104D01*
X117171886Y-76885653D01*
X117100892Y-76886283D01*
X117046221Y-76854172D01*
X114941405Y-74749356D01*
X114907379Y-74687044D01*
X114904500Y-74660261D01*
X114904500Y-73969003D01*
X114924502Y-73900882D01*
X114978158Y-73854389D01*
X115048432Y-73844285D01*
X115104568Y-73867072D01*
X115109278Y-73870495D01*
X115126779Y-73879412D01*
X115223445Y-73928666D01*
X115318166Y-73943668D01*
X115397472Y-73943668D01*
X115465593Y-73963670D01*
X115486562Y-73980568D01*
X116740840Y-75234847D01*
X116740841Y-75234848D01*
X116740843Y-75234849D01*
X116813737Y-75276934D01*
X116813739Y-75276934D01*
X116833078Y-75288100D01*
X116935956Y-75315666D01*
X124835501Y-75315666D01*
X124903622Y-75335668D01*
X124950115Y-75389324D01*
X124960219Y-75459598D01*
X124940266Y-75511668D01*
X124884916Y-75594505D01*
X124828343Y-75731083D01*
X124828342Y-75731086D01*
X124828342Y-75731087D01*
X124799500Y-75876082D01*
X124799500Y-76023918D01*
X124813494Y-76094267D01*
X124828342Y-76168913D01*
X124828343Y-76168916D01*
X124880264Y-76294265D01*
X124884916Y-76305495D01*
X124967049Y-76428416D01*
X125071584Y-76532951D01*
X125194505Y-76615084D01*
X125331087Y-76671658D01*
X125476082Y-76700500D01*
X125476087Y-76700500D01*
X125623913Y-76700500D01*
X125623918Y-76700500D01*
X125768913Y-76671658D01*
X125905495Y-76615084D01*
X126028416Y-76532951D01*
X126132951Y-76428416D01*
X126215084Y-76305495D01*
X126271658Y-76168913D01*
X126300500Y-76023918D01*
X126300500Y-75876082D01*
X126271658Y-75731087D01*
X126215084Y-75594505D01*
X126159733Y-75511667D01*
X126138519Y-75443915D01*
X126157302Y-75375448D01*
X126210119Y-75328005D01*
X126264499Y-75315666D01*
X127091427Y-75315666D01*
X127159548Y-75335668D01*
X127180522Y-75352571D01*
X128681781Y-76853831D01*
X128715807Y-76916143D01*
X128710742Y-76986959D01*
X128668195Y-77043794D01*
X128662688Y-77047691D01*
X128629670Y-77069753D01*
X128629669Y-77069753D01*
X128489752Y-77209671D01*
X128489751Y-77209673D01*
X128379824Y-77374190D01*
X128304104Y-77556994D01*
X128304103Y-77556997D01*
X128265500Y-77751061D01*
X128265500Y-77948938D01*
X128304103Y-78143002D01*
X128304104Y-78143005D01*
X128344968Y-78241660D01*
X128379824Y-78325809D01*
X128489754Y-78490331D01*
X128629669Y-78630246D01*
X128794191Y-78740176D01*
X128976998Y-78815897D01*
X129171065Y-78854500D01*
X129368935Y-78854500D01*
X129563002Y-78815897D01*
X129745809Y-78740176D01*
X129910331Y-78630246D01*
X130050246Y-78490331D01*
X130160176Y-78325809D01*
X130235897Y-78143002D01*
X130274500Y-77948935D01*
X130274500Y-77751065D01*
X130235897Y-77556998D01*
X130160176Y-77374191D01*
X130050246Y-77209669D01*
X129910331Y-77069754D01*
X129910330Y-77069753D01*
X129907907Y-77067330D01*
X129873882Y-77005018D01*
X129878947Y-76934202D01*
X129907905Y-76889142D01*
X130705645Y-76091404D01*
X130767957Y-76057379D01*
X130794740Y-76054500D01*
X131552726Y-76054500D01*
X131620847Y-76074502D01*
X131667340Y-76128158D01*
X131675349Y-76151522D01*
X131676959Y-76158335D01*
X131676960Y-76158342D01*
X131682751Y-76173869D01*
X131727657Y-76294266D01*
X131727658Y-76294267D01*
X131814596Y-76410404D01*
X131930733Y-76497342D01*
X132066658Y-76548040D01*
X132126745Y-76554500D01*
X133473254Y-76554499D01*
X133533342Y-76548040D01*
X133669267Y-76497342D01*
X133785404Y-76410404D01*
X133872342Y-76294267D01*
X133923040Y-76158342D01*
X133929500Y-76098255D01*
X133929499Y-75201746D01*
X133923040Y-75141658D01*
X133872342Y-75005733D01*
X133870331Y-75002050D01*
X133869439Y-74997949D01*
X133869193Y-74997290D01*
X133869287Y-74997254D01*
X133855240Y-74932676D01*
X133880052Y-74866156D01*
X133936888Y-74823610D01*
X133980919Y-74815666D01*
X134941427Y-74815666D01*
X135009548Y-74835668D01*
X135030522Y-74852571D01*
X135238473Y-75060522D01*
X135272499Y-75122834D01*
X135274656Y-75163086D01*
X135270500Y-75201735D01*
X135270500Y-76098246D01*
X135270502Y-76098270D01*
X135276959Y-76158339D01*
X135276959Y-76158341D01*
X135327657Y-76294266D01*
X135327658Y-76294267D01*
X135414596Y-76410404D01*
X135530733Y-76497342D01*
X135666658Y-76548040D01*
X135726745Y-76554500D01*
X137073254Y-76554499D01*
X137133342Y-76548040D01*
X137269267Y-76497342D01*
X137385404Y-76410404D01*
X137472342Y-76294267D01*
X137523040Y-76158342D01*
X137529500Y-76098255D01*
X137529499Y-75430499D01*
X137549501Y-75362379D01*
X137603157Y-75315886D01*
X137655499Y-75304500D01*
X138042962Y-75304500D01*
X138111083Y-75324502D01*
X138157576Y-75378158D01*
X138167680Y-75448432D01*
X138147727Y-75500502D01*
X138084916Y-75594505D01*
X138028343Y-75731083D01*
X138028342Y-75731086D01*
X138028342Y-75731087D01*
X137999500Y-75876082D01*
X137999500Y-76023918D01*
X138013494Y-76094267D01*
X138028342Y-76168913D01*
X138028343Y-76168916D01*
X138080264Y-76294265D01*
X138084916Y-76305495D01*
X138167049Y-76428416D01*
X138271584Y-76532951D01*
X138394505Y-76615084D01*
X138531087Y-76671658D01*
X138676082Y-76700500D01*
X138676087Y-76700500D01*
X138823913Y-76700500D01*
X138823918Y-76700500D01*
X138968913Y-76671658D01*
X139105495Y-76615084D01*
X139228416Y-76532951D01*
X139332951Y-76428416D01*
X139415084Y-76305495D01*
X139471658Y-76168913D01*
X139500500Y-76023918D01*
X139500500Y-75876082D01*
X139471658Y-75731087D01*
X139415084Y-75594505D01*
X139352272Y-75500501D01*
X139331058Y-75432749D01*
X139349841Y-75364282D01*
X139402658Y-75316839D01*
X139457038Y-75304500D01*
X140380261Y-75304500D01*
X140448382Y-75324502D01*
X140469356Y-75341405D01*
X141941727Y-76813776D01*
X141975753Y-76876088D01*
X141970688Y-76946903D01*
X141928141Y-77003739D01*
X141922634Y-77007636D01*
X141829673Y-77069750D01*
X141829666Y-77069756D01*
X141689756Y-77209666D01*
X141689751Y-77209673D01*
X141579824Y-77374190D01*
X141504104Y-77556994D01*
X141504103Y-77556997D01*
X141465500Y-77751061D01*
X141465500Y-77948938D01*
X141504103Y-78143002D01*
X141504104Y-78143005D01*
X141544968Y-78241660D01*
X141579824Y-78325809D01*
X141689754Y-78490331D01*
X141829669Y-78630246D01*
X141994191Y-78740176D01*
X142176998Y-78815897D01*
X142371065Y-78854500D01*
X142568935Y-78854500D01*
X142763002Y-78815897D01*
X142945809Y-78740176D01*
X143110331Y-78630246D01*
X143250246Y-78490331D01*
X143360176Y-78325809D01*
X143435897Y-78143002D01*
X143474500Y-77948935D01*
X143474500Y-77751065D01*
X143435897Y-77556998D01*
X143360176Y-77374191D01*
X143250246Y-77209669D01*
X143110331Y-77069754D01*
X143013447Y-77005018D01*
X142945799Y-76959817D01*
X142941094Y-76957302D01*
X142890450Y-76907546D01*
X142874500Y-76846186D01*
X142874500Y-76716748D01*
X142870146Y-76700500D01*
X142846934Y-76613869D01*
X142846934Y-76613868D01*
X142793681Y-76521632D01*
X142793679Y-76521629D01*
X140848375Y-74576325D01*
X140848365Y-74576317D01*
X140756135Y-74523068D01*
X140756132Y-74523067D01*
X140756131Y-74523066D01*
X140756129Y-74523065D01*
X140756128Y-74523065D01*
X140728561Y-74515678D01*
X140653253Y-74495500D01*
X137203253Y-74495500D01*
X137096747Y-74495500D01*
X137047872Y-74508596D01*
X136993871Y-74523065D01*
X136993864Y-74523068D01*
X136901634Y-74576317D01*
X136901628Y-74576322D01*
X136769354Y-74708596D01*
X136707042Y-74742621D01*
X136680259Y-74745500D01*
X136119739Y-74745500D01*
X136051618Y-74725498D01*
X136030644Y-74708595D01*
X135741644Y-74419595D01*
X135707618Y-74357283D01*
X135712683Y-74286468D01*
X135755230Y-74229632D01*
X135821750Y-74204821D01*
X135830739Y-74204500D01*
X141280261Y-74204500D01*
X141348382Y-74224502D01*
X141369356Y-74241405D01*
X144458596Y-77330645D01*
X144492622Y-77392957D01*
X144495501Y-77419740D01*
X144495501Y-79580151D01*
X144475499Y-79648272D01*
X144421843Y-79694765D01*
X144351569Y-79704869D01*
X144286989Y-79675375D01*
X144267566Y-79654213D01*
X144244517Y-79622490D01*
X144244512Y-79622484D01*
X144077512Y-79455484D01*
X143886436Y-79316659D01*
X143886435Y-79316658D01*
X143886433Y-79316657D01*
X143675992Y-79209432D01*
X143451368Y-79136447D01*
X143218092Y-79099500D01*
X142981908Y-79099500D01*
X142748632Y-79136447D01*
X142748629Y-79136447D01*
X142748628Y-79136448D01*
X142524008Y-79209432D01*
X142524006Y-79209433D01*
X142313563Y-79316659D01*
X142122487Y-79455484D01*
X141955484Y-79622487D01*
X141816659Y-79813563D01*
X141709433Y-80024006D01*
X141709432Y-80024008D01*
X141640851Y-80235079D01*
X141636447Y-80248632D01*
X141599500Y-80481908D01*
X141599500Y-80718092D01*
X141636447Y-80951368D01*
X141709432Y-81175992D01*
X141804401Y-81362379D01*
X141816659Y-81386436D01*
X141955484Y-81577512D01*
X142122487Y-81744515D01*
X142127339Y-81748040D01*
X142313567Y-81883343D01*
X142524008Y-81990568D01*
X142748632Y-82063553D01*
X142981908Y-82100500D01*
X142981911Y-82100500D01*
X143218089Y-82100500D01*
X143218092Y-82100500D01*
X143451368Y-82063553D01*
X143675992Y-81990568D01*
X143886433Y-81883343D01*
X144077510Y-81744517D01*
X144244517Y-81577510D01*
X144267565Y-81545786D01*
X144323787Y-81502433D01*
X144394524Y-81496358D01*
X144457315Y-81529490D01*
X144492227Y-81591310D01*
X144495501Y-81619848D01*
X144495501Y-84680260D01*
X144475499Y-84748381D01*
X144458596Y-84769355D01*
X143569356Y-85658595D01*
X143507044Y-85692621D01*
X143480261Y-85695500D01*
X135634079Y-85695500D01*
X135565958Y-85675498D01*
X135544984Y-85658595D01*
X134841405Y-84955016D01*
X134807379Y-84892704D01*
X134804500Y-84865921D01*
X134804500Y-83501737D01*
X135270500Y-83501737D01*
X135270500Y-84398246D01*
X135270502Y-84398270D01*
X135276959Y-84458339D01*
X135276959Y-84458341D01*
X135327657Y-84594266D01*
X135327658Y-84594267D01*
X135414596Y-84710404D01*
X135530733Y-84797342D01*
X135666658Y-84848040D01*
X135726745Y-84854500D01*
X136330259Y-84854499D01*
X136398380Y-84874501D01*
X136419354Y-84891404D01*
X136751624Y-85223674D01*
X136751628Y-85223677D01*
X136751631Y-85223680D01*
X136843869Y-85276934D01*
X136946747Y-85304500D01*
X136946749Y-85304500D01*
X141953251Y-85304500D01*
X141953253Y-85304500D01*
X142056131Y-85276934D01*
X142148369Y-85223680D01*
X142793680Y-84578369D01*
X142846934Y-84486131D01*
X142874500Y-84383253D01*
X142874500Y-84353812D01*
X142894502Y-84285691D01*
X142941111Y-84242686D01*
X142945797Y-84240180D01*
X142945809Y-84240176D01*
X143110331Y-84130246D01*
X143250246Y-83990331D01*
X143360176Y-83825809D01*
X143435897Y-83643002D01*
X143474500Y-83448935D01*
X143474500Y-83251065D01*
X143435897Y-83056998D01*
X143360176Y-82874191D01*
X143250246Y-82709669D01*
X143110331Y-82569754D01*
X142945809Y-82459824D01*
X142849035Y-82419739D01*
X142763005Y-82384104D01*
X142763002Y-82384103D01*
X142568938Y-82345500D01*
X142568935Y-82345500D01*
X142371065Y-82345500D01*
X142371061Y-82345500D01*
X142176997Y-82384103D01*
X142176994Y-82384104D01*
X141994190Y-82459824D01*
X141829673Y-82569751D01*
X141829666Y-82569756D01*
X141689756Y-82709666D01*
X141689751Y-82709673D01*
X141579824Y-82874190D01*
X141504104Y-83056994D01*
X141504103Y-83056997D01*
X141465500Y-83251061D01*
X141465500Y-83448938D01*
X141504102Y-83642997D01*
X141504103Y-83643002D01*
X141579824Y-83825809D01*
X141689754Y-83990331D01*
X141829666Y-84130243D01*
X141829669Y-84130246D01*
X141862687Y-84152308D01*
X141908215Y-84206785D01*
X141917063Y-84277228D01*
X141886422Y-84341272D01*
X141881781Y-84346168D01*
X141769356Y-84458595D01*
X141707044Y-84492620D01*
X141680260Y-84495500D01*
X137655500Y-84495500D01*
X137587379Y-84475498D01*
X137540886Y-84421842D01*
X137529500Y-84369500D01*
X137529499Y-83501753D01*
X137529499Y-83501746D01*
X137523040Y-83441658D01*
X137472342Y-83305733D01*
X137385404Y-83189596D01*
X137269267Y-83102658D01*
X137269265Y-83102657D01*
X137269266Y-83102657D01*
X137133349Y-83051962D01*
X137133344Y-83051960D01*
X137133342Y-83051960D01*
X137103298Y-83048730D01*
X137073256Y-83045500D01*
X135726753Y-83045500D01*
X135726729Y-83045502D01*
X135666660Y-83051959D01*
X135666658Y-83051959D01*
X135530733Y-83102657D01*
X135414596Y-83189596D01*
X135327657Y-83305734D01*
X135276962Y-83441650D01*
X135276960Y-83441658D01*
X135270500Y-83501737D01*
X134804500Y-83501737D01*
X134804500Y-81430500D01*
X134824502Y-81362379D01*
X134878158Y-81315886D01*
X134930500Y-81304500D01*
X135169395Y-81304500D01*
X135237516Y-81324502D01*
X135284009Y-81378158D01*
X135287450Y-81386467D01*
X135327657Y-81494266D01*
X135327658Y-81494267D01*
X135414596Y-81610404D01*
X135530733Y-81697342D01*
X135666658Y-81748040D01*
X135726745Y-81754500D01*
X137073254Y-81754499D01*
X137133342Y-81748040D01*
X137269267Y-81697342D01*
X137385404Y-81610404D01*
X137472342Y-81494267D01*
X137523040Y-81358342D01*
X137529500Y-81298255D01*
X137529499Y-80481908D01*
X137799500Y-80481908D01*
X137799500Y-80718092D01*
X137836447Y-80951368D01*
X137909432Y-81175992D01*
X138004401Y-81362379D01*
X138016659Y-81386436D01*
X138155484Y-81577512D01*
X138322487Y-81744515D01*
X138327339Y-81748040D01*
X138513567Y-81883343D01*
X138724008Y-81990568D01*
X138948632Y-82063553D01*
X139181908Y-82100500D01*
X139181911Y-82100500D01*
X139418089Y-82100500D01*
X139418092Y-82100500D01*
X139651368Y-82063553D01*
X139875992Y-81990568D01*
X140086433Y-81883343D01*
X140277510Y-81744517D01*
X140444517Y-81577510D01*
X140583343Y-81386433D01*
X140690568Y-81175992D01*
X140763553Y-80951368D01*
X140800500Y-80718092D01*
X140800500Y-80481908D01*
X140763553Y-80248632D01*
X140690568Y-80024008D01*
X140583343Y-79813567D01*
X140482305Y-79674501D01*
X140444515Y-79622487D01*
X140277512Y-79455484D01*
X140086436Y-79316659D01*
X140086435Y-79316658D01*
X140086433Y-79316657D01*
X139875992Y-79209432D01*
X139651368Y-79136447D01*
X139418092Y-79099500D01*
X139181908Y-79099500D01*
X138948632Y-79136447D01*
X138948629Y-79136447D01*
X138948628Y-79136448D01*
X138724008Y-79209432D01*
X138724006Y-79209433D01*
X138513563Y-79316659D01*
X138322487Y-79455484D01*
X138155484Y-79622487D01*
X138016659Y-79813563D01*
X137909433Y-80024006D01*
X137909432Y-80024008D01*
X137840851Y-80235079D01*
X137836447Y-80248632D01*
X137799500Y-80481908D01*
X137529499Y-80481908D01*
X137529499Y-80401746D01*
X137523040Y-80341658D01*
X137472342Y-80205733D01*
X137385404Y-80089596D01*
X137269267Y-80002658D01*
X137269265Y-80002657D01*
X137269266Y-80002657D01*
X137133349Y-79951962D01*
X137133344Y-79951960D01*
X137133342Y-79951960D01*
X137125831Y-79951152D01*
X137073262Y-79945500D01*
X137073255Y-79945500D01*
X136930500Y-79945500D01*
X136862379Y-79925498D01*
X136815886Y-79871842D01*
X136804500Y-79819500D01*
X136804500Y-79780499D01*
X136824502Y-79712378D01*
X136878158Y-79665885D01*
X136930500Y-79654499D01*
X137073247Y-79654499D01*
X137073254Y-79654499D01*
X137133342Y-79648040D01*
X137269267Y-79597342D01*
X137385404Y-79510404D01*
X137472342Y-79394267D01*
X137523040Y-79258342D01*
X137529500Y-79198255D01*
X137529499Y-78301746D01*
X137523040Y-78241658D01*
X137472342Y-78105733D01*
X137385404Y-77989596D01*
X137269267Y-77902658D01*
X137269265Y-77902657D01*
X137269266Y-77902657D01*
X137133349Y-77851962D01*
X137133344Y-77851960D01*
X137133342Y-77851960D01*
X137103298Y-77848730D01*
X137073256Y-77845500D01*
X135726753Y-77845500D01*
X135726729Y-77845502D01*
X135666660Y-77851959D01*
X135666658Y-77851959D01*
X135530733Y-77902657D01*
X135414596Y-77989596D01*
X135327657Y-78105734D01*
X135276962Y-78241650D01*
X135276960Y-78241658D01*
X135270500Y-78301737D01*
X135270500Y-79198246D01*
X135270502Y-79198270D01*
X135276959Y-79258339D01*
X135276959Y-79258341D01*
X135327657Y-79394266D01*
X135327658Y-79394267D01*
X135414596Y-79510404D01*
X135530733Y-79597342D01*
X135666658Y-79648040D01*
X135726745Y-79654500D01*
X135869500Y-79654499D01*
X135937620Y-79674501D01*
X135984113Y-79728156D01*
X135995500Y-79780499D01*
X135995500Y-79819500D01*
X135975498Y-79887621D01*
X135921842Y-79934114D01*
X135869501Y-79945500D01*
X135726753Y-79945500D01*
X135726729Y-79945502D01*
X135666660Y-79951959D01*
X135666658Y-79951959D01*
X135530733Y-80002657D01*
X135414596Y-80089596D01*
X135327657Y-80205734D01*
X135276962Y-80341650D01*
X135276960Y-80341658D01*
X135272519Y-80382969D01*
X135245350Y-80448561D01*
X135187032Y-80489052D01*
X135147241Y-80495500D01*
X134047274Y-80495500D01*
X133979153Y-80475498D01*
X133932660Y-80421842D01*
X133924651Y-80398478D01*
X133923041Y-80391670D01*
X133923040Y-80391658D01*
X133872342Y-80255733D01*
X133785404Y-80139596D01*
X133669267Y-80052658D01*
X133669265Y-80052657D01*
X133669266Y-80052657D01*
X133533349Y-80001962D01*
X133533344Y-80001960D01*
X133533342Y-80001960D01*
X133525831Y-80001152D01*
X133473262Y-79995500D01*
X133473255Y-79995500D01*
X133330500Y-79995500D01*
X133262379Y-79975498D01*
X133215886Y-79921842D01*
X133204500Y-79869500D01*
X133204500Y-79780499D01*
X133224502Y-79712378D01*
X133278158Y-79665885D01*
X133330500Y-79654499D01*
X133473247Y-79654499D01*
X133473254Y-79654499D01*
X133533342Y-79648040D01*
X133669267Y-79597342D01*
X133785404Y-79510404D01*
X133872342Y-79394267D01*
X133923040Y-79258342D01*
X133929500Y-79198255D01*
X133929499Y-78301746D01*
X133923040Y-78241658D01*
X133872342Y-78105733D01*
X133785404Y-77989596D01*
X133669267Y-77902658D01*
X133669265Y-77902657D01*
X133669266Y-77902657D01*
X133533349Y-77851962D01*
X133533344Y-77851960D01*
X133533342Y-77851960D01*
X133503298Y-77848730D01*
X133473256Y-77845500D01*
X132126753Y-77845500D01*
X132126729Y-77845502D01*
X132066660Y-77851959D01*
X132066658Y-77851959D01*
X131930733Y-77902657D01*
X131814596Y-77989596D01*
X131727657Y-78105734D01*
X131676962Y-78241650D01*
X131676960Y-78241658D01*
X131670500Y-78301737D01*
X131670500Y-79198246D01*
X131670502Y-79198270D01*
X131676959Y-79258339D01*
X131676959Y-79258341D01*
X131727657Y-79394266D01*
X131727658Y-79394267D01*
X131814596Y-79510404D01*
X131930733Y-79597342D01*
X132066658Y-79648040D01*
X132126745Y-79654500D01*
X132269500Y-79654499D01*
X132337620Y-79674501D01*
X132384113Y-79728156D01*
X132395500Y-79780499D01*
X132395500Y-79869500D01*
X132375498Y-79937621D01*
X132321842Y-79984114D01*
X132269501Y-79995500D01*
X132126753Y-79995500D01*
X132126729Y-79995502D01*
X132066660Y-80001959D01*
X132066658Y-80001959D01*
X131930733Y-80052657D01*
X131814596Y-80139596D01*
X131727657Y-80255734D01*
X131676962Y-80391650D01*
X131676960Y-80391658D01*
X131670500Y-80451737D01*
X131670500Y-81348246D01*
X131670502Y-81348270D01*
X131676959Y-81408339D01*
X131676959Y-81408341D01*
X131727657Y-81544266D01*
X131730482Y-81548040D01*
X131814596Y-81660404D01*
X131930733Y-81747342D01*
X132066658Y-81798040D01*
X132126745Y-81804500D01*
X133473254Y-81804499D01*
X133533342Y-81798040D01*
X133669267Y-81747342D01*
X133785404Y-81660404D01*
X133785404Y-81660403D01*
X133792619Y-81655003D01*
X133794601Y-81657651D01*
X133842717Y-81631378D01*
X133913532Y-81636443D01*
X133970368Y-81678990D01*
X133995179Y-81745510D01*
X133995500Y-81754499D01*
X133995500Y-83145501D01*
X133975498Y-83213622D01*
X133921842Y-83260115D01*
X133851568Y-83270219D01*
X133793567Y-83243729D01*
X133792619Y-83244997D01*
X133718611Y-83189596D01*
X133669267Y-83152658D01*
X133669265Y-83152657D01*
X133669266Y-83152657D01*
X133533349Y-83101962D01*
X133533344Y-83101960D01*
X133533342Y-83101960D01*
X133525831Y-83101152D01*
X133473262Y-83095500D01*
X133473255Y-83095500D01*
X132519739Y-83095500D01*
X132451618Y-83075498D01*
X132430647Y-83058598D01*
X132398369Y-83026320D01*
X132398368Y-83026319D01*
X132398365Y-83026317D01*
X132306135Y-82973068D01*
X132306132Y-82973067D01*
X132306131Y-82973066D01*
X132306129Y-82973065D01*
X132306128Y-82973065D01*
X132278561Y-82965678D01*
X132203253Y-82945500D01*
X132203251Y-82945500D01*
X130273813Y-82945500D01*
X130205692Y-82925498D01*
X130162692Y-82878898D01*
X130160176Y-82874191D01*
X130090383Y-82769739D01*
X130050246Y-82709669D01*
X129910331Y-82569754D01*
X129745809Y-82459824D01*
X129649035Y-82419739D01*
X129563005Y-82384104D01*
X129563002Y-82384103D01*
X129368938Y-82345500D01*
X129368935Y-82345500D01*
X129171065Y-82345500D01*
X129171061Y-82345500D01*
X128976997Y-82384103D01*
X128976994Y-82384104D01*
X128794190Y-82459824D01*
X128629673Y-82569751D01*
X128629666Y-82569756D01*
X128489756Y-82709666D01*
X128489751Y-82709673D01*
X128379824Y-82874190D01*
X128304104Y-83056994D01*
X128304103Y-83056997D01*
X128265500Y-83251061D01*
X128265500Y-83448938D01*
X128304102Y-83642997D01*
X128304103Y-83643002D01*
X128379824Y-83825809D01*
X128489754Y-83990331D01*
X128629669Y-84130246D01*
X128794191Y-84240176D01*
X128976998Y-84315897D01*
X129171065Y-84354500D01*
X129368935Y-84354500D01*
X129563002Y-84315897D01*
X129745809Y-84240176D01*
X129910331Y-84130246D01*
X130050246Y-83990331D01*
X130160176Y-83825809D01*
X130160177Y-83825804D01*
X130162692Y-83821102D01*
X130212445Y-83770455D01*
X130273813Y-83754500D01*
X131544500Y-83754500D01*
X131612621Y-83774502D01*
X131659114Y-83828158D01*
X131670500Y-83880500D01*
X131670500Y-84448246D01*
X131670502Y-84448270D01*
X131676959Y-84508339D01*
X131676959Y-84508341D01*
X131727657Y-84644266D01*
X131730482Y-84648040D01*
X131814596Y-84760404D01*
X131930733Y-84847342D01*
X132066658Y-84898040D01*
X132126745Y-84904500D01*
X133473254Y-84904499D01*
X133533342Y-84898040D01*
X133669267Y-84847342D01*
X133785404Y-84760404D01*
X133785404Y-84760403D01*
X133792619Y-84755003D01*
X133794601Y-84757651D01*
X133842717Y-84731378D01*
X133913532Y-84736443D01*
X133970368Y-84778990D01*
X133995179Y-84845510D01*
X133995500Y-84854499D01*
X133995500Y-84980261D01*
X133975498Y-85048382D01*
X133958595Y-85069356D01*
X133399357Y-85628594D01*
X133337045Y-85662620D01*
X133310262Y-85665499D01*
X129783254Y-85665499D01*
X129676748Y-85665499D01*
X129634072Y-85676934D01*
X129573872Y-85693064D01*
X129573865Y-85693067D01*
X129481635Y-85746316D01*
X129481625Y-85746324D01*
X125069356Y-90158595D01*
X125007044Y-90192621D01*
X124980261Y-90195500D01*
X118919739Y-90195500D01*
X118851618Y-90175498D01*
X118830644Y-90158595D01*
X117936341Y-89264292D01*
X117902315Y-89201980D01*
X117907380Y-89131165D01*
X117924563Y-89099695D01*
X117947342Y-89069267D01*
X117998040Y-88933342D01*
X118004500Y-88873255D01*
X118004499Y-87526746D01*
X117998040Y-87466658D01*
X117947342Y-87330733D01*
X117860404Y-87214596D01*
X117744267Y-87127658D01*
X117744265Y-87127657D01*
X117744266Y-87127657D01*
X117608349Y-87076962D01*
X117608344Y-87076960D01*
X117608342Y-87076960D01*
X117578298Y-87073730D01*
X117548256Y-87070500D01*
X116651753Y-87070500D01*
X116651729Y-87070502D01*
X116591660Y-87076959D01*
X116591658Y-87076959D01*
X116455733Y-87127657D01*
X116339596Y-87214596D01*
X116252657Y-87330734D01*
X116201962Y-87466650D01*
X116201960Y-87466658D01*
X116195500Y-87526737D01*
X116195500Y-87669500D01*
X116175498Y-87737621D01*
X116121842Y-87784114D01*
X116069500Y-87795500D01*
X115930499Y-87795500D01*
X115862378Y-87775498D01*
X115815885Y-87721842D01*
X115804499Y-87669500D01*
X115804499Y-87526753D01*
X115804499Y-87526746D01*
X115798040Y-87466658D01*
X115747342Y-87330733D01*
X115660404Y-87214596D01*
X115544267Y-87127658D01*
X115544265Y-87127657D01*
X115544266Y-87127657D01*
X115408349Y-87076962D01*
X115408344Y-87076960D01*
X115408342Y-87076960D01*
X115378298Y-87073730D01*
X115348256Y-87070500D01*
X114451753Y-87070500D01*
X114451729Y-87070502D01*
X114391660Y-87076959D01*
X114391658Y-87076959D01*
X114255733Y-87127657D01*
X114139596Y-87214596D01*
X114052657Y-87330734D01*
X114001962Y-87466650D01*
X114001960Y-87466658D01*
X113995500Y-87526737D01*
X113995500Y-88873246D01*
X113995502Y-88873270D01*
X114001959Y-88933339D01*
X114001959Y-88933341D01*
X114052657Y-89069266D01*
X114139596Y-89185404D01*
X114196441Y-89227957D01*
X114238988Y-89284793D01*
X114244054Y-89355608D01*
X114210029Y-89417921D01*
X113469356Y-90158595D01*
X113407043Y-90192620D01*
X113380260Y-90195500D01*
X108119739Y-90195500D01*
X108051618Y-90175498D01*
X108030644Y-90158595D01*
X105484516Y-87612466D01*
X105398787Y-87526737D01*
X110895500Y-87526737D01*
X110895500Y-88873246D01*
X110895502Y-88873270D01*
X110901959Y-88933339D01*
X110901959Y-88933341D01*
X110952657Y-89069266D01*
X110960403Y-89079613D01*
X111039596Y-89185404D01*
X111155733Y-89272342D01*
X111291658Y-89323040D01*
X111351745Y-89329500D01*
X112248254Y-89329499D01*
X112308342Y-89323040D01*
X112444267Y-89272342D01*
X112560404Y-89185404D01*
X112647342Y-89069267D01*
X112698040Y-88933342D01*
X112704500Y-88873255D01*
X112704499Y-87526746D01*
X112698040Y-87466658D01*
X112647342Y-87330733D01*
X112560404Y-87214596D01*
X112444267Y-87127658D01*
X112444265Y-87127657D01*
X112444266Y-87127657D01*
X112308346Y-87076961D01*
X112301524Y-87075349D01*
X112239829Y-87040217D01*
X112206921Y-86977308D01*
X112204500Y-86952726D01*
X112204500Y-86819739D01*
X112224502Y-86751618D01*
X112241405Y-86730644D01*
X113230645Y-85741405D01*
X113292957Y-85707379D01*
X113319740Y-85704500D01*
X116753251Y-85704500D01*
X116753253Y-85704500D01*
X116856131Y-85676934D01*
X116948369Y-85623680D01*
X117793680Y-84778369D01*
X117846934Y-84686132D01*
X117858151Y-84644267D01*
X117874500Y-84583253D01*
X117874500Y-84353812D01*
X117894502Y-84285691D01*
X117941111Y-84242686D01*
X117945797Y-84240180D01*
X117945809Y-84240176D01*
X118110331Y-84130246D01*
X118250246Y-83990331D01*
X118360176Y-83825809D01*
X118435897Y-83643002D01*
X118474500Y-83448935D01*
X118474500Y-83251065D01*
X118435897Y-83056998D01*
X118360176Y-82874191D01*
X118250246Y-82709669D01*
X118110331Y-82569754D01*
X117945809Y-82459824D01*
X117849035Y-82419739D01*
X117763005Y-82384104D01*
X117763002Y-82384103D01*
X117568938Y-82345500D01*
X117568935Y-82345500D01*
X117371065Y-82345500D01*
X117371061Y-82345500D01*
X117176997Y-82384103D01*
X117176994Y-82384104D01*
X116994190Y-82459824D01*
X116829673Y-82569751D01*
X116829666Y-82569756D01*
X116689756Y-82709666D01*
X116689751Y-82709673D01*
X116579824Y-82874190D01*
X116504104Y-83056994D01*
X116504103Y-83056997D01*
X116465500Y-83251061D01*
X116465500Y-83448938D01*
X116504102Y-83642997D01*
X116504103Y-83643002D01*
X116579824Y-83825809D01*
X116689754Y-83990331D01*
X116829669Y-84130246D01*
X116829672Y-84130248D01*
X116829677Y-84130252D01*
X116982579Y-84232417D01*
X117028107Y-84286893D01*
X117036956Y-84357336D01*
X117006315Y-84421381D01*
X117001674Y-84426277D01*
X116569354Y-84858596D01*
X116507044Y-84892620D01*
X116480261Y-84895500D01*
X113153253Y-84895500D01*
X113046747Y-84895500D01*
X112943869Y-84923066D01*
X112943868Y-84923066D01*
X112943866Y-84923067D01*
X112851634Y-84976316D01*
X112851628Y-84976321D01*
X112604276Y-85223674D01*
X111551631Y-86276320D01*
X111513976Y-86313975D01*
X111476321Y-86351629D01*
X111476317Y-86351634D01*
X111423068Y-86443864D01*
X111423065Y-86443871D01*
X111395500Y-86546748D01*
X111395500Y-86952725D01*
X111375498Y-87020846D01*
X111321842Y-87067339D01*
X111298486Y-87075346D01*
X111291656Y-87076960D01*
X111155733Y-87127657D01*
X111039596Y-87214596D01*
X110952657Y-87330734D01*
X110901962Y-87466650D01*
X110901960Y-87466658D01*
X110895500Y-87526737D01*
X105398787Y-87526737D01*
X103391645Y-85519595D01*
X103357619Y-85457283D01*
X103362684Y-85386468D01*
X103405231Y-85329632D01*
X103471751Y-85304821D01*
X103480740Y-85304500D01*
X104173251Y-85304500D01*
X104173253Y-85304500D01*
X104276131Y-85276934D01*
X104368369Y-85223680D01*
X105246222Y-84345825D01*
X105308533Y-84311802D01*
X105371896Y-84314349D01*
X105376995Y-84315896D01*
X105376996Y-84315896D01*
X105376998Y-84315897D01*
X105571065Y-84354500D01*
X105768935Y-84354500D01*
X105963002Y-84315897D01*
X106145809Y-84240176D01*
X106310331Y-84130246D01*
X106450246Y-83990331D01*
X106560176Y-83825809D01*
X106635897Y-83643002D01*
X106674500Y-83448935D01*
X106674500Y-83251065D01*
X106635897Y-83056998D01*
X106560176Y-82874191D01*
X106450246Y-82709669D01*
X106310331Y-82569754D01*
X106145809Y-82459824D01*
X106049035Y-82419739D01*
X105963005Y-82384104D01*
X105963002Y-82384103D01*
X105768938Y-82345500D01*
X105768935Y-82345500D01*
X105571065Y-82345500D01*
X105571061Y-82345500D01*
X105376997Y-82384103D01*
X105376994Y-82384104D01*
X105194190Y-82459824D01*
X105029673Y-82569751D01*
X105029666Y-82569756D01*
X104889756Y-82709666D01*
X104889751Y-82709673D01*
X104779824Y-82874190D01*
X104704104Y-83056994D01*
X104704103Y-83056997D01*
X104665500Y-83251061D01*
X104665500Y-83448938D01*
X104704102Y-83642997D01*
X104704103Y-83643002D01*
X104704104Y-83643005D01*
X104705651Y-83648102D01*
X104706286Y-83719096D01*
X104674173Y-83773776D01*
X103989356Y-84458595D01*
X103927043Y-84492620D01*
X103900260Y-84495500D01*
X101019739Y-84495500D01*
X100951618Y-84475498D01*
X100930644Y-84458595D01*
X100855018Y-84382969D01*
X100820992Y-84320657D01*
X100821491Y-84264895D01*
X100823037Y-84258349D01*
X100823040Y-84258342D01*
X100829500Y-84198255D01*
X100829499Y-83301746D01*
X100823040Y-83241658D01*
X100772342Y-83105733D01*
X100685404Y-82989596D01*
X100569267Y-82902658D01*
X100569265Y-82902657D01*
X100569266Y-82902657D01*
X100433349Y-82851962D01*
X100433344Y-82851960D01*
X100433342Y-82851960D01*
X100403298Y-82848730D01*
X100373256Y-82845500D01*
X99026753Y-82845500D01*
X99026729Y-82845502D01*
X98966660Y-82851959D01*
X98966658Y-82851959D01*
X98830733Y-82902657D01*
X98714596Y-82989596D01*
X98627657Y-83105734D01*
X98576962Y-83241650D01*
X98576960Y-83241658D01*
X98570500Y-83301737D01*
X98570500Y-84198246D01*
X98570502Y-84198270D01*
X98576959Y-84258339D01*
X98576959Y-84258341D01*
X98627657Y-84394266D01*
X98647955Y-84421381D01*
X98714596Y-84510404D01*
X98830733Y-84597342D01*
X98966658Y-84648040D01*
X99026745Y-84654500D01*
X99930260Y-84654499D01*
X99998381Y-84674501D01*
X100019355Y-84691404D01*
X100508356Y-85180405D01*
X100542382Y-85242717D01*
X100537317Y-85313532D01*
X100494770Y-85370368D01*
X100428250Y-85395179D01*
X100419261Y-85395500D01*
X98919739Y-85395500D01*
X98851618Y-85375498D01*
X98830644Y-85358595D01*
X98341405Y-84869356D01*
X98307379Y-84807044D01*
X98304500Y-84780261D01*
X98304500Y-82419739D01*
X98324502Y-82351618D01*
X98341405Y-82330644D01*
X99080645Y-81591404D01*
X99142957Y-81557378D01*
X99169740Y-81554499D01*
X100373247Y-81554499D01*
X100373254Y-81554499D01*
X100433342Y-81548040D01*
X100569267Y-81497342D01*
X100685404Y-81410404D01*
X100772342Y-81294267D01*
X100823040Y-81158342D01*
X100829500Y-81098255D01*
X100829499Y-81098252D01*
X100829820Y-81095277D01*
X100856989Y-81029685D01*
X100915308Y-80989194D01*
X100986259Y-80986660D01*
X101047317Y-81022888D01*
X101074930Y-81069808D01*
X101109432Y-81175992D01*
X101204401Y-81362379D01*
X101216659Y-81386436D01*
X101355484Y-81577512D01*
X101522487Y-81744515D01*
X101527339Y-81748040D01*
X101713567Y-81883343D01*
X101924008Y-81990568D01*
X102148632Y-82063553D01*
X102381908Y-82100500D01*
X102381911Y-82100500D01*
X102618089Y-82100500D01*
X102618092Y-82100500D01*
X102851368Y-82063553D01*
X103075992Y-81990568D01*
X103286433Y-81883343D01*
X103477510Y-81744517D01*
X103644517Y-81577510D01*
X103783343Y-81386433D01*
X103890568Y-81175992D01*
X103963553Y-80951368D01*
X104000500Y-80718092D01*
X104000500Y-80481908D01*
X104799500Y-80481908D01*
X104799500Y-80718092D01*
X104836447Y-80951368D01*
X104909432Y-81175992D01*
X105004401Y-81362379D01*
X105016659Y-81386436D01*
X105155484Y-81577512D01*
X105322487Y-81744515D01*
X105327339Y-81748040D01*
X105513567Y-81883343D01*
X105724008Y-81990568D01*
X105948632Y-82063553D01*
X106181908Y-82100500D01*
X106181911Y-82100500D01*
X106418089Y-82100500D01*
X106418092Y-82100500D01*
X106651368Y-82063553D01*
X106875992Y-81990568D01*
X107086433Y-81883343D01*
X107277510Y-81744517D01*
X107444517Y-81577510D01*
X107583343Y-81386433D01*
X107690568Y-81175992D01*
X107763553Y-80951368D01*
X107800500Y-80718092D01*
X107800500Y-80481908D01*
X112799500Y-80481908D01*
X112799500Y-80718092D01*
X112836447Y-80951368D01*
X112909432Y-81175992D01*
X113004401Y-81362379D01*
X113016659Y-81386436D01*
X113155484Y-81577512D01*
X113322487Y-81744515D01*
X113327339Y-81748040D01*
X113513567Y-81883343D01*
X113724008Y-81990568D01*
X113948632Y-82063553D01*
X114181908Y-82100500D01*
X114181911Y-82100500D01*
X114418089Y-82100500D01*
X114418092Y-82100500D01*
X114651368Y-82063553D01*
X114875992Y-81990568D01*
X115086433Y-81883343D01*
X115277510Y-81744517D01*
X115444517Y-81577510D01*
X115583343Y-81386433D01*
X115690568Y-81175992D01*
X115763553Y-80951368D01*
X115800500Y-80718092D01*
X115800500Y-80481908D01*
X115763553Y-80248632D01*
X115690568Y-80024008D01*
X115583343Y-79813567D01*
X115482305Y-79674501D01*
X115444515Y-79622487D01*
X115277512Y-79455484D01*
X115086436Y-79316659D01*
X115086435Y-79316658D01*
X115086433Y-79316657D01*
X114875992Y-79209432D01*
X114651368Y-79136447D01*
X114418092Y-79099500D01*
X114181908Y-79099500D01*
X113948632Y-79136447D01*
X113948629Y-79136447D01*
X113948628Y-79136448D01*
X113724008Y-79209432D01*
X113724006Y-79209433D01*
X113513563Y-79316659D01*
X113322487Y-79455484D01*
X113155484Y-79622487D01*
X113016659Y-79813563D01*
X112909433Y-80024006D01*
X112909432Y-80024008D01*
X112840851Y-80235079D01*
X112836447Y-80248632D01*
X112799500Y-80481908D01*
X107800500Y-80481908D01*
X107763553Y-80248632D01*
X107690568Y-80024008D01*
X107583343Y-79813567D01*
X107482305Y-79674501D01*
X107444515Y-79622487D01*
X107277512Y-79455484D01*
X107086436Y-79316659D01*
X107086435Y-79316658D01*
X107086433Y-79316657D01*
X106875992Y-79209432D01*
X106651368Y-79136447D01*
X106418092Y-79099500D01*
X106181908Y-79099500D01*
X105948632Y-79136447D01*
X105948629Y-79136447D01*
X105948628Y-79136448D01*
X105724008Y-79209432D01*
X105724006Y-79209433D01*
X105513563Y-79316659D01*
X105322487Y-79455484D01*
X105155484Y-79622487D01*
X105016659Y-79813563D01*
X104909433Y-80024006D01*
X104909432Y-80024008D01*
X104840851Y-80235079D01*
X104836447Y-80248632D01*
X104799500Y-80481908D01*
X104000500Y-80481908D01*
X103963553Y-80248632D01*
X103890568Y-80024008D01*
X103783343Y-79813567D01*
X103682305Y-79674501D01*
X103644515Y-79622487D01*
X103477512Y-79455484D01*
X103286436Y-79316659D01*
X103286435Y-79316658D01*
X103286433Y-79316657D01*
X103075992Y-79209432D01*
X102851368Y-79136447D01*
X102618092Y-79099500D01*
X102381908Y-79099500D01*
X102148632Y-79136447D01*
X102148629Y-79136447D01*
X102148628Y-79136448D01*
X101924008Y-79209432D01*
X101924006Y-79209433D01*
X101713563Y-79316659D01*
X101522487Y-79455484D01*
X101355484Y-79622487D01*
X101216659Y-79813563D01*
X101216657Y-79813567D01*
X101109432Y-80024008D01*
X101069773Y-80146066D01*
X101066537Y-80156025D01*
X101026463Y-80214630D01*
X100961066Y-80242267D01*
X100891110Y-80230160D01*
X100838804Y-80182154D01*
X100824081Y-80146066D01*
X100823041Y-80141670D01*
X100823040Y-80141658D01*
X100772342Y-80005733D01*
X100685404Y-79889596D01*
X100569267Y-79802658D01*
X100569265Y-79802657D01*
X100569266Y-79802657D01*
X100433349Y-79751962D01*
X100433344Y-79751960D01*
X100433342Y-79751960D01*
X100425831Y-79751152D01*
X100373262Y-79745500D01*
X100373255Y-79745500D01*
X100230500Y-79745500D01*
X100162379Y-79725498D01*
X100115886Y-79671842D01*
X100104500Y-79619500D01*
X100104500Y-79580499D01*
X100124502Y-79512378D01*
X100178158Y-79465885D01*
X100230500Y-79454499D01*
X100373247Y-79454499D01*
X100373254Y-79454499D01*
X100433342Y-79448040D01*
X100569267Y-79397342D01*
X100685404Y-79310404D01*
X100772342Y-79194267D01*
X100823040Y-79058342D01*
X100829500Y-78998255D01*
X100829499Y-78101746D01*
X100823040Y-78041658D01*
X100772342Y-77905733D01*
X100685404Y-77789596D01*
X100569267Y-77702658D01*
X100569265Y-77702657D01*
X100569266Y-77702657D01*
X100433349Y-77651962D01*
X100433344Y-77651960D01*
X100433342Y-77651960D01*
X100403298Y-77648730D01*
X100373256Y-77645500D01*
X99026753Y-77645500D01*
X99026729Y-77645502D01*
X98966660Y-77651959D01*
X98966658Y-77651959D01*
X98830733Y-77702657D01*
X98714596Y-77789596D01*
X98627657Y-77905734D01*
X98576962Y-78041650D01*
X98576960Y-78041658D01*
X98570500Y-78101737D01*
X98570500Y-78998246D01*
X98570502Y-78998270D01*
X98576959Y-79058339D01*
X98576959Y-79058341D01*
X98627657Y-79194266D01*
X98639010Y-79209432D01*
X98714596Y-79310404D01*
X98830733Y-79397342D01*
X98966658Y-79448040D01*
X99026745Y-79454500D01*
X99169500Y-79454499D01*
X99237620Y-79474501D01*
X99284113Y-79528156D01*
X99295500Y-79580499D01*
X99295500Y-79619500D01*
X99275498Y-79687621D01*
X99221842Y-79734114D01*
X99169501Y-79745500D01*
X99026753Y-79745500D01*
X99026729Y-79745502D01*
X98966660Y-79751959D01*
X98966658Y-79751959D01*
X98830733Y-79802657D01*
X98714596Y-79889596D01*
X98627657Y-80005734D01*
X98576962Y-80141650D01*
X98576960Y-80141658D01*
X98570500Y-80201737D01*
X98570500Y-80905259D01*
X98550498Y-80973380D01*
X98533595Y-80994354D01*
X97814094Y-81713855D01*
X97751782Y-81747881D01*
X97680967Y-81742816D01*
X97635904Y-81713855D01*
X97161526Y-81239477D01*
X97127500Y-81177165D01*
X97125343Y-81136917D01*
X97129500Y-81098255D01*
X97129499Y-80201746D01*
X97123040Y-80141658D01*
X97072342Y-80005733D01*
X96985404Y-79889596D01*
X96869267Y-79802658D01*
X96869265Y-79802657D01*
X96869266Y-79802657D01*
X96733349Y-79751962D01*
X96733344Y-79751960D01*
X96733342Y-79751960D01*
X96725831Y-79751152D01*
X96673262Y-79745500D01*
X96673255Y-79745500D01*
X96530500Y-79745500D01*
X96462379Y-79725498D01*
X96415886Y-79671842D01*
X96404500Y-79619500D01*
X96404500Y-79580499D01*
X96424502Y-79512378D01*
X96478158Y-79465885D01*
X96530500Y-79454499D01*
X96673247Y-79454499D01*
X96673254Y-79454499D01*
X96733342Y-79448040D01*
X96869267Y-79397342D01*
X96985404Y-79310404D01*
X97072342Y-79194267D01*
X97123040Y-79058342D01*
X97129500Y-78998255D01*
X97129499Y-78101746D01*
X97123040Y-78041658D01*
X97072342Y-77905733D01*
X96985404Y-77789596D01*
X96869267Y-77702658D01*
X96869265Y-77702657D01*
X96869266Y-77702657D01*
X96733349Y-77651962D01*
X96733344Y-77651960D01*
X96733342Y-77651960D01*
X96703298Y-77648730D01*
X96673256Y-77645500D01*
X95326753Y-77645500D01*
X95326729Y-77645502D01*
X95266660Y-77651959D01*
X95266658Y-77651959D01*
X95130733Y-77702657D01*
X95014596Y-77789596D01*
X94927657Y-77905734D01*
X94876962Y-78041650D01*
X94876960Y-78041658D01*
X94870500Y-78101737D01*
X94870500Y-78998246D01*
X94870502Y-78998270D01*
X94876959Y-79058339D01*
X94876959Y-79058341D01*
X94927657Y-79194266D01*
X94939010Y-79209432D01*
X95014596Y-79310404D01*
X95130733Y-79397342D01*
X95266658Y-79448040D01*
X95326745Y-79454500D01*
X95469500Y-79454499D01*
X95537620Y-79474501D01*
X95584113Y-79528156D01*
X95595500Y-79580499D01*
X95595500Y-79619500D01*
X95575498Y-79687621D01*
X95521842Y-79734114D01*
X95469501Y-79745500D01*
X95326753Y-79745500D01*
X95326729Y-79745502D01*
X95266660Y-79751959D01*
X95266658Y-79751959D01*
X95130733Y-79802657D01*
X95014596Y-79889596D01*
X94927657Y-80005734D01*
X94876962Y-80141650D01*
X94876960Y-80141658D01*
X94870500Y-80201737D01*
X94870500Y-81098246D01*
X94870502Y-81098270D01*
X94876959Y-81158339D01*
X94876959Y-81158341D01*
X94927657Y-81294266D01*
X94935318Y-81304500D01*
X95014596Y-81410404D01*
X95130733Y-81497342D01*
X95266658Y-81548040D01*
X95326745Y-81554500D01*
X96280260Y-81554499D01*
X96348381Y-81574501D01*
X96369355Y-81591404D01*
X97458595Y-82680644D01*
X97492621Y-82742956D01*
X97495500Y-82769739D01*
X97495500Y-84946747D01*
X97495500Y-85053253D01*
X97496271Y-85056130D01*
X97523065Y-85156128D01*
X97523068Y-85156135D01*
X97576317Y-85248365D01*
X97576319Y-85248367D01*
X97576320Y-85248369D01*
X98376320Y-86048369D01*
X98451629Y-86123678D01*
X98451631Y-86123680D01*
X98470166Y-86134381D01*
X98519159Y-86185764D01*
X98532594Y-86255478D01*
X98506207Y-86321389D01*
X98448375Y-86362570D01*
X98407165Y-86369500D01*
X98338709Y-86369500D01*
X98098217Y-86401160D01*
X97863904Y-86463944D01*
X97863900Y-86463946D01*
X97660597Y-86548157D01*
X97639786Y-86556777D01*
X97639775Y-86556782D01*
X97429714Y-86678061D01*
X97237262Y-86825735D01*
X97237251Y-86825744D01*
X97065744Y-86997251D01*
X97065735Y-86997262D01*
X96918061Y-87189714D01*
X96796782Y-87399775D01*
X96796777Y-87399786D01*
X96796776Y-87399788D01*
X96744192Y-87526737D01*
X96703946Y-87623900D01*
X96703944Y-87623904D01*
X96641160Y-87858217D01*
X96609500Y-88098709D01*
X96609500Y-88341290D01*
X96641160Y-88581782D01*
X96703944Y-88816095D01*
X96703945Y-88816097D01*
X96703946Y-88816100D01*
X96796776Y-89040212D01*
X96796777Y-89040213D01*
X96796782Y-89040224D01*
X96918061Y-89250285D01*
X96918063Y-89250288D01*
X96918064Y-89250289D01*
X97065735Y-89442738D01*
X97065739Y-89442742D01*
X97065744Y-89442748D01*
X97237251Y-89614255D01*
X97237256Y-89614259D01*
X97237262Y-89614265D01*
X97429711Y-89761936D01*
X97429714Y-89761938D01*
X97639775Y-89883217D01*
X97639779Y-89883218D01*
X97639788Y-89883224D01*
X97863900Y-89976054D01*
X98098211Y-90038838D01*
X98098215Y-90038838D01*
X98098217Y-90038839D01*
X98160202Y-90046999D01*
X98338712Y-90070500D01*
X98338719Y-90070500D01*
X98581281Y-90070500D01*
X98581288Y-90070500D01*
X98798637Y-90041885D01*
X98821782Y-90038839D01*
X98821782Y-90038838D01*
X98821789Y-90038838D01*
X99056100Y-89976054D01*
X99280212Y-89883224D01*
X99490289Y-89761936D01*
X99682738Y-89614265D01*
X99854265Y-89442738D01*
X100001936Y-89250289D01*
X100123224Y-89040212D01*
X100216054Y-88816100D01*
X100278838Y-88581789D01*
X100310500Y-88341288D01*
X100310500Y-88098712D01*
X100278838Y-87858211D01*
X100216054Y-87623900D01*
X100123224Y-87399788D01*
X100123218Y-87399779D01*
X100123217Y-87399775D01*
X100001938Y-87189714D01*
X99954320Y-87127657D01*
X99854265Y-86997262D01*
X99854259Y-86997256D01*
X99854255Y-86997251D01*
X99682748Y-86825744D01*
X99682742Y-86825739D01*
X99682738Y-86825735D01*
X99490289Y-86678064D01*
X99490288Y-86678063D01*
X99490285Y-86678061D01*
X99280224Y-86556782D01*
X99280216Y-86556778D01*
X99280212Y-86556776D01*
X99056100Y-86463946D01*
X99056097Y-86463945D01*
X99056095Y-86463944D01*
X99023466Y-86455201D01*
X99012288Y-86452206D01*
X98951666Y-86415255D01*
X98920645Y-86351394D01*
X98929073Y-86280900D01*
X98974276Y-86226153D01*
X99041902Y-86204536D01*
X99044900Y-86204500D01*
X102880261Y-86204500D01*
X102948382Y-86224502D01*
X102969356Y-86241405D01*
X107651624Y-90923674D01*
X107651629Y-90923678D01*
X107651631Y-90923680D01*
X107743869Y-90976934D01*
X107846747Y-91004500D01*
X107846749Y-91004500D01*
X113653251Y-91004500D01*
X113653253Y-91004500D01*
X113756131Y-90976934D01*
X113848369Y-90923680D01*
X115223681Y-89548369D01*
X115276934Y-89456131D01*
X115287400Y-89417069D01*
X115324350Y-89356450D01*
X115388211Y-89325428D01*
X115395617Y-89324407D01*
X115408342Y-89323040D01*
X115544267Y-89272342D01*
X115660404Y-89185404D01*
X115747342Y-89069267D01*
X115798040Y-88933342D01*
X115804500Y-88873255D01*
X115804500Y-88730500D01*
X115824502Y-88662379D01*
X115878158Y-88615886D01*
X115930500Y-88604500D01*
X116069501Y-88604500D01*
X116137622Y-88624502D01*
X116184115Y-88678158D01*
X116195501Y-88730500D01*
X116195501Y-88873246D01*
X116195502Y-88873270D01*
X116201959Y-88933339D01*
X116201959Y-88933341D01*
X116252657Y-89069266D01*
X116260403Y-89079613D01*
X116339596Y-89185404D01*
X116455733Y-89272342D01*
X116591658Y-89323040D01*
X116651745Y-89329500D01*
X116805259Y-89329499D01*
X116873380Y-89349501D01*
X116894355Y-89366404D01*
X118451624Y-90923674D01*
X118451629Y-90923678D01*
X118451631Y-90923680D01*
X118543869Y-90976934D01*
X118646747Y-91004500D01*
X118646749Y-91004500D01*
X125253251Y-91004500D01*
X125253253Y-91004500D01*
X125356131Y-90976934D01*
X125448369Y-90923680D01*
X125688136Y-90683913D01*
X125835968Y-90536082D01*
X144689500Y-90536082D01*
X144689500Y-90683918D01*
X144707923Y-90776536D01*
X144718342Y-90828913D01*
X144718343Y-90828916D01*
X144760233Y-90930046D01*
X144774916Y-90965495D01*
X144857049Y-91088416D01*
X144961584Y-91192951D01*
X145084505Y-91275084D01*
X145221087Y-91331658D01*
X145366082Y-91360500D01*
X145366087Y-91360500D01*
X145513913Y-91360500D01*
X145513918Y-91360500D01*
X145658913Y-91331658D01*
X145795495Y-91275084D01*
X145918416Y-91192951D01*
X146022951Y-91088416D01*
X146105084Y-90965495D01*
X146161658Y-90828913D01*
X146190500Y-90683918D01*
X146190500Y-90536082D01*
X146161658Y-90391087D01*
X146105084Y-90254505D01*
X146022951Y-90131584D01*
X145918416Y-90027049D01*
X145795495Y-89944916D01*
X145658916Y-89888343D01*
X145658913Y-89888342D01*
X145513918Y-89859500D01*
X145366082Y-89859500D01*
X145293584Y-89873921D01*
X145221086Y-89888342D01*
X145221083Y-89888343D01*
X145084504Y-89944916D01*
X144961588Y-90027046D01*
X144961581Y-90027051D01*
X144857051Y-90131581D01*
X144857046Y-90131588D01*
X144774916Y-90254504D01*
X144718343Y-90391083D01*
X144718342Y-90391086D01*
X144718342Y-90391087D01*
X144689500Y-90536082D01*
X125835968Y-90536082D01*
X125931253Y-90440797D01*
X129860645Y-86511404D01*
X129922957Y-86477378D01*
X129949740Y-86474499D01*
X132763818Y-86474499D01*
X132831939Y-86494501D01*
X132878432Y-86548157D01*
X132888536Y-86618431D01*
X132859042Y-86683011D01*
X132840525Y-86700459D01*
X132773853Y-86751618D01*
X132677261Y-86825735D01*
X132677251Y-86825744D01*
X132505744Y-86997251D01*
X132505735Y-86997262D01*
X132358061Y-87189714D01*
X132236782Y-87399775D01*
X132236777Y-87399786D01*
X132236776Y-87399788D01*
X132184192Y-87526737D01*
X132143946Y-87623900D01*
X132143944Y-87623904D01*
X132081160Y-87858217D01*
X132049500Y-88098709D01*
X132049500Y-88341290D01*
X132081160Y-88581782D01*
X132143944Y-88816095D01*
X132143945Y-88816097D01*
X132143946Y-88816100D01*
X132236776Y-89040212D01*
X132236777Y-89040213D01*
X132236782Y-89040224D01*
X132358061Y-89250285D01*
X132358063Y-89250288D01*
X132358064Y-89250289D01*
X132505735Y-89442738D01*
X132505739Y-89442742D01*
X132505744Y-89442748D01*
X132677251Y-89614255D01*
X132677256Y-89614259D01*
X132677262Y-89614265D01*
X132869711Y-89761936D01*
X132869714Y-89761938D01*
X133079775Y-89883217D01*
X133079779Y-89883218D01*
X133079788Y-89883224D01*
X133303900Y-89976054D01*
X133538211Y-90038838D01*
X133538215Y-90038838D01*
X133538217Y-90038839D01*
X133600202Y-90046999D01*
X133778712Y-90070500D01*
X133778719Y-90070500D01*
X134021281Y-90070500D01*
X134021288Y-90070500D01*
X134238637Y-90041885D01*
X134261782Y-90038839D01*
X134261782Y-90038838D01*
X134261789Y-90038838D01*
X134496100Y-89976054D01*
X134720212Y-89883224D01*
X134930289Y-89761936D01*
X135122738Y-89614265D01*
X135294265Y-89442738D01*
X135441936Y-89250289D01*
X135563224Y-89040212D01*
X135656054Y-88816100D01*
X135718838Y-88581789D01*
X135750500Y-88341288D01*
X135750500Y-88098712D01*
X135718838Y-87858211D01*
X135656054Y-87623900D01*
X135563224Y-87399788D01*
X135563218Y-87399779D01*
X135563217Y-87399775D01*
X135441938Y-87189714D01*
X135394320Y-87127657D01*
X135294265Y-86997262D01*
X135294259Y-86997256D01*
X135294255Y-86997251D01*
X135122748Y-86825744D01*
X135122742Y-86825739D01*
X135122738Y-86825735D01*
X134930289Y-86678064D01*
X134930288Y-86678063D01*
X134930285Y-86678061D01*
X134720224Y-86556782D01*
X134720216Y-86556778D01*
X134720212Y-86556776D01*
X134496100Y-86463946D01*
X134496097Y-86463945D01*
X134496095Y-86463944D01*
X134303642Y-86412376D01*
X134261789Y-86401162D01*
X134261787Y-86401161D01*
X134261781Y-86401160D01*
X134081312Y-86377402D01*
X134016385Y-86348680D01*
X133977293Y-86289415D01*
X133976448Y-86218423D01*
X134008661Y-86163387D01*
X134368076Y-85803972D01*
X134430386Y-85769948D01*
X134501201Y-85775013D01*
X134546264Y-85803974D01*
X135165969Y-86423679D01*
X135165972Y-86423681D01*
X135238718Y-86465681D01*
X135258208Y-86476934D01*
X135279948Y-86482759D01*
X135361087Y-86504500D01*
X135361088Y-86504500D01*
X143753251Y-86504500D01*
X143753253Y-86504500D01*
X143856131Y-86476934D01*
X143948369Y-86423680D01*
X145223681Y-85148368D01*
X145276935Y-85056130D01*
X145304501Y-84953252D01*
X145304501Y-84846746D01*
X145304501Y-77146748D01*
X145276935Y-77043870D01*
X145262212Y-77018369D01*
X145223682Y-76951632D01*
X145223679Y-76951629D01*
X145223676Y-76951625D01*
X141748375Y-73476325D01*
X141748365Y-73476317D01*
X141656135Y-73423068D01*
X141656132Y-73423067D01*
X141656131Y-73423066D01*
X141656129Y-73423065D01*
X141656128Y-73423065D01*
X141628561Y-73415678D01*
X141553253Y-73395500D01*
X141553251Y-73395500D01*
X120730571Y-73395500D01*
X120662450Y-73375498D01*
X120641476Y-73358595D01*
X120091405Y-72808524D01*
X120057379Y-72746212D01*
X120054500Y-72719429D01*
X120054500Y-72019497D01*
X120054500Y-72007334D01*
X120039498Y-71912613D01*
X119999999Y-71835093D01*
X119981326Y-71798444D01*
X119890723Y-71707841D01*
X119776553Y-71649669D01*
X119711836Y-71639419D01*
X119681834Y-71634668D01*
X119318166Y-71634668D01*
X119292266Y-71638770D01*
X119223446Y-71649669D01*
X119109276Y-71707841D01*
X119109276Y-71707842D01*
X119089094Y-71728024D01*
X119026781Y-71762048D01*
X118955965Y-71756982D01*
X118910905Y-71728022D01*
X118890723Y-71707840D01*
X118776553Y-71649668D01*
X118711836Y-71639418D01*
X118681834Y-71634667D01*
X118318166Y-71634667D01*
X118292266Y-71638769D01*
X118223446Y-71649668D01*
X118109276Y-71707840D01*
X118018673Y-71798443D01*
X117960501Y-71912613D01*
X117945500Y-72007334D01*
X117945500Y-73570999D01*
X117960501Y-73665720D01*
X118018673Y-73779890D01*
X118030354Y-73791571D01*
X118064380Y-73853883D01*
X118059315Y-73924698D01*
X118016768Y-73981534D01*
X117950248Y-74006345D01*
X117941259Y-74006666D01*
X117441738Y-74006666D01*
X117373617Y-73986664D01*
X117352643Y-73969761D01*
X117086139Y-73703257D01*
X117052113Y-73640945D01*
X117050786Y-73594449D01*
X117054500Y-73571002D01*
X117054500Y-72007335D01*
X117050563Y-71982474D01*
X117039498Y-71912613D01*
X116999999Y-71835093D01*
X116981326Y-71798444D01*
X116890723Y-71707841D01*
X116776553Y-71649669D01*
X116711836Y-71639419D01*
X116681834Y-71634668D01*
X116318166Y-71634668D01*
X116292266Y-71638770D01*
X116223446Y-71649669D01*
X116109276Y-71707841D01*
X116109274Y-71707843D01*
X116089095Y-71728023D01*
X116026783Y-71762049D01*
X115955968Y-71756984D01*
X115910905Y-71728023D01*
X115890723Y-71707841D01*
X115776553Y-71649669D01*
X115711836Y-71639419D01*
X115681834Y-71634668D01*
X115318166Y-71634668D01*
X115292266Y-71638770D01*
X115223446Y-71649669D01*
X115109276Y-71707841D01*
X115109274Y-71707843D01*
X115089095Y-71728023D01*
X115026783Y-71762049D01*
X114955968Y-71756984D01*
X114910905Y-71728023D01*
X114890723Y-71707841D01*
X114776553Y-71649669D01*
X114711836Y-71639419D01*
X114681834Y-71634668D01*
X114318166Y-71634668D01*
X114292266Y-71638770D01*
X114223446Y-71649669D01*
X114109276Y-71707841D01*
X114109276Y-71707842D01*
X114089094Y-71728024D01*
X114026781Y-71762048D01*
X113955965Y-71756982D01*
X113910905Y-71728022D01*
X113890723Y-71707840D01*
X113776553Y-71649668D01*
X113711836Y-71639418D01*
X113681834Y-71634667D01*
X113318166Y-71634667D01*
X113292266Y-71638769D01*
X113223446Y-71649668D01*
X113109276Y-71707840D01*
X113109276Y-71707841D01*
X113089093Y-71728024D01*
X113026780Y-71762048D01*
X112955964Y-71756982D01*
X112910904Y-71728022D01*
X112890723Y-71707841D01*
X112776553Y-71649669D01*
X112711836Y-71639419D01*
X112681834Y-71634668D01*
X112318166Y-71634668D01*
X112292266Y-71638770D01*
X112223446Y-71649669D01*
X112109276Y-71707841D01*
X112018673Y-71798444D01*
X111960501Y-71912613D01*
X111953681Y-71955676D01*
X111923268Y-72019829D01*
X111862999Y-72057355D01*
X111792010Y-72056341D01*
X111732838Y-72017108D01*
X111704271Y-71952112D01*
X111703956Y-71922480D01*
X111704499Y-71917432D01*
X111704499Y-71917430D01*
X111704500Y-71917423D01*
X111704499Y-69320914D01*
X111704498Y-69320905D01*
X120295500Y-69320905D01*
X120295500Y-71917414D01*
X120295502Y-71917434D01*
X120295907Y-71921207D01*
X120295912Y-71921246D01*
X120301960Y-71977510D01*
X120303810Y-71982471D01*
X120303811Y-71982474D01*
X120352657Y-72113434D01*
X120352658Y-72113435D01*
X120439596Y-72229572D01*
X120555733Y-72316510D01*
X120691658Y-72367208D01*
X120751745Y-72373668D01*
X122948254Y-72373667D01*
X123008342Y-72367208D01*
X123144267Y-72316510D01*
X123260404Y-72229572D01*
X123347342Y-72113435D01*
X123398040Y-71977510D01*
X123404500Y-71917423D01*
X123404500Y-71788709D01*
X142689500Y-71788709D01*
X142689500Y-72031290D01*
X142721160Y-72271782D01*
X142783944Y-72506095D01*
X142783945Y-72506097D01*
X142783946Y-72506100D01*
X142876776Y-72730212D01*
X142876777Y-72730213D01*
X142876782Y-72730224D01*
X142998061Y-72940285D01*
X142998063Y-72940288D01*
X142998064Y-72940289D01*
X143145735Y-73132738D01*
X143145739Y-73132742D01*
X143145744Y-73132748D01*
X143317251Y-73304255D01*
X143317256Y-73304259D01*
X143317262Y-73304265D01*
X143509711Y-73451936D01*
X143509714Y-73451938D01*
X143719775Y-73573217D01*
X143719779Y-73573218D01*
X143719788Y-73573224D01*
X143943900Y-73666054D01*
X144178211Y-73728838D01*
X144178215Y-73728838D01*
X144178217Y-73728839D01*
X144240202Y-73736999D01*
X144418712Y-73760500D01*
X144418719Y-73760500D01*
X144661281Y-73760500D01*
X144661288Y-73760500D01*
X144878637Y-73731885D01*
X144901782Y-73728839D01*
X144901782Y-73728838D01*
X144901789Y-73728838D01*
X145136100Y-73666054D01*
X145360212Y-73573224D01*
X145570289Y-73451936D01*
X145762738Y-73304265D01*
X145934265Y-73132738D01*
X146081936Y-72940289D01*
X146203224Y-72730212D01*
X146296054Y-72506100D01*
X146358838Y-72271789D01*
X146390500Y-72031288D01*
X146390500Y-71788712D01*
X146358838Y-71548211D01*
X146296054Y-71313900D01*
X146203224Y-71089788D01*
X146203218Y-71089779D01*
X146203217Y-71089775D01*
X146081938Y-70879714D01*
X146081936Y-70879711D01*
X145934265Y-70687262D01*
X145934259Y-70687256D01*
X145934255Y-70687251D01*
X145762748Y-70515744D01*
X145762742Y-70515739D01*
X145762738Y-70515735D01*
X145570289Y-70368064D01*
X145570288Y-70368063D01*
X145570285Y-70368061D01*
X145360224Y-70246782D01*
X145360216Y-70246778D01*
X145360212Y-70246776D01*
X145136100Y-70153946D01*
X145136097Y-70153945D01*
X145136095Y-70153944D01*
X144901782Y-70091160D01*
X144661290Y-70059500D01*
X144661288Y-70059500D01*
X144418712Y-70059500D01*
X144418709Y-70059500D01*
X144178217Y-70091160D01*
X143943904Y-70153944D01*
X143943900Y-70153946D01*
X143719786Y-70246777D01*
X143719775Y-70246782D01*
X143509714Y-70368061D01*
X143317262Y-70515735D01*
X143317251Y-70515744D01*
X143145744Y-70687251D01*
X143145735Y-70687262D01*
X142998061Y-70879714D01*
X142876782Y-71089775D01*
X142876777Y-71089786D01*
X142876776Y-71089788D01*
X142860806Y-71128343D01*
X142783946Y-71313900D01*
X142783944Y-71313904D01*
X142721160Y-71548217D01*
X142689500Y-71788709D01*
X123404500Y-71788709D01*
X123404499Y-69320914D01*
X123398040Y-69260826D01*
X123347342Y-69124901D01*
X123260404Y-69008764D01*
X123144267Y-68921826D01*
X123144265Y-68921825D01*
X123144266Y-68921825D01*
X123008349Y-68871130D01*
X123008344Y-68871128D01*
X123008342Y-68871128D01*
X122978298Y-68867898D01*
X122948256Y-68864668D01*
X120751753Y-68864668D01*
X120751729Y-68864670D01*
X120691660Y-68871127D01*
X120691658Y-68871127D01*
X120555733Y-68921825D01*
X120439596Y-69008764D01*
X120352657Y-69124902D01*
X120301962Y-69260818D01*
X120301960Y-69260826D01*
X120295500Y-69320905D01*
X111704498Y-69320905D01*
X111698040Y-69260826D01*
X111647342Y-69124901D01*
X111560404Y-69008764D01*
X111444267Y-68921826D01*
X111444265Y-68921825D01*
X111444266Y-68921825D01*
X111308349Y-68871130D01*
X111308344Y-68871128D01*
X111308342Y-68871128D01*
X111278298Y-68867898D01*
X111248256Y-68864668D01*
X109051753Y-68864668D01*
X109051729Y-68864670D01*
X108991660Y-68871127D01*
X108991658Y-68871127D01*
X108855733Y-68921825D01*
X108739596Y-69008764D01*
X108652657Y-69124902D01*
X108601962Y-69260818D01*
X108601960Y-69260826D01*
X108595500Y-69320905D01*
X108595500Y-71917414D01*
X108595502Y-71917438D01*
X108601959Y-71977507D01*
X108601959Y-71977509D01*
X108652657Y-72113434D01*
X108704853Y-72183160D01*
X108729663Y-72249680D01*
X108714571Y-72319054D01*
X108664369Y-72369256D01*
X108603984Y-72384668D01*
X97264086Y-72384668D01*
X97157580Y-72384668D01*
X97102450Y-72399439D01*
X97054704Y-72412233D01*
X97054697Y-72412236D01*
X96962467Y-72465485D01*
X96962461Y-72465490D01*
X96676510Y-72751441D01*
X95676320Y-73751629D01*
X95676318Y-73751632D01*
X95623068Y-73843863D01*
X95623064Y-73843874D01*
X95615931Y-73870491D01*
X95615932Y-73870492D01*
X95595500Y-73946746D01*
X95595500Y-74419500D01*
X95575498Y-74487621D01*
X95521842Y-74534114D01*
X95469501Y-74545500D01*
X95326753Y-74545500D01*
X95326729Y-74545502D01*
X95266660Y-74551959D01*
X95266658Y-74551959D01*
X95130733Y-74602657D01*
X95014596Y-74689596D01*
X94927657Y-74805734D01*
X94876962Y-74941650D01*
X94876960Y-74941657D01*
X94876484Y-74946090D01*
X94875155Y-74949296D01*
X94875149Y-74949325D01*
X94875144Y-74949323D01*
X94849312Y-75011681D01*
X94790992Y-75052170D01*
X94783819Y-75054322D01*
X94713868Y-75073066D01*
X94713867Y-75073066D01*
X94621634Y-75126316D01*
X94621624Y-75126324D01*
X92893777Y-76854171D01*
X92831465Y-76888197D01*
X92768119Y-76885654D01*
X92763013Y-76884105D01*
X92568938Y-76845500D01*
X92568935Y-76845500D01*
X92371065Y-76845500D01*
X92371061Y-76845500D01*
X92176997Y-76884103D01*
X92176994Y-76884104D01*
X91994190Y-76959824D01*
X91829673Y-77069751D01*
X91829666Y-77069756D01*
X91689756Y-77209666D01*
X91689751Y-77209673D01*
X91579824Y-77374190D01*
X91504104Y-77556994D01*
X91504103Y-77556997D01*
X91465500Y-77751061D01*
X85181639Y-77751061D01*
X85166101Y-75876082D01*
X87999500Y-75876082D01*
X87999500Y-76023918D01*
X88013494Y-76094267D01*
X88028342Y-76168913D01*
X88028343Y-76168916D01*
X88080264Y-76294265D01*
X88084916Y-76305495D01*
X88167049Y-76428416D01*
X88271584Y-76532951D01*
X88394505Y-76615084D01*
X88531087Y-76671658D01*
X88676082Y-76700500D01*
X88676087Y-76700500D01*
X88823913Y-76700500D01*
X88823918Y-76700500D01*
X88968913Y-76671658D01*
X89105495Y-76615084D01*
X89228416Y-76532951D01*
X89332951Y-76428416D01*
X89415084Y-76305495D01*
X89471658Y-76168913D01*
X89500500Y-76023918D01*
X89500500Y-75876082D01*
X89471658Y-75731087D01*
X89415084Y-75594505D01*
X89332951Y-75471584D01*
X89228416Y-75367049D01*
X89105495Y-75284916D01*
X89076884Y-75273065D01*
X88968916Y-75228343D01*
X88968913Y-75228342D01*
X88823918Y-75199500D01*
X88676082Y-75199500D01*
X88622437Y-75210171D01*
X88531086Y-75228342D01*
X88531083Y-75228343D01*
X88394504Y-75284916D01*
X88271588Y-75367046D01*
X88271581Y-75367051D01*
X88167051Y-75471581D01*
X88167046Y-75471588D01*
X88084916Y-75594504D01*
X88028343Y-75731083D01*
X88028342Y-75731086D01*
X88028342Y-75731087D01*
X87999500Y-75876082D01*
X85166101Y-75876082D01*
X85135834Y-72223895D01*
X85135830Y-72222851D01*
X85135830Y-71788709D01*
X85959500Y-71788709D01*
X85959500Y-72031290D01*
X85991160Y-72271782D01*
X86053944Y-72506095D01*
X86053945Y-72506097D01*
X86053946Y-72506100D01*
X86146776Y-72730212D01*
X86146777Y-72730213D01*
X86146782Y-72730224D01*
X86268061Y-72940285D01*
X86268063Y-72940288D01*
X86268064Y-72940289D01*
X86415735Y-73132738D01*
X86415739Y-73132742D01*
X86415744Y-73132748D01*
X86587251Y-73304255D01*
X86587256Y-73304259D01*
X86587262Y-73304265D01*
X86779711Y-73451936D01*
X86779714Y-73451938D01*
X86989775Y-73573217D01*
X86989779Y-73573218D01*
X86989788Y-73573224D01*
X87213900Y-73666054D01*
X87448211Y-73728838D01*
X87448215Y-73728838D01*
X87448217Y-73728839D01*
X87510202Y-73736999D01*
X87688712Y-73760500D01*
X87688719Y-73760500D01*
X87931281Y-73760500D01*
X87931288Y-73760500D01*
X88148637Y-73731885D01*
X88171782Y-73728839D01*
X88171782Y-73728838D01*
X88171789Y-73728838D01*
X88406100Y-73666054D01*
X88630212Y-73573224D01*
X88840289Y-73451936D01*
X89032738Y-73304265D01*
X89204265Y-73132738D01*
X89351936Y-72940289D01*
X89473224Y-72730212D01*
X89566054Y-72506100D01*
X89628838Y-72271789D01*
X89660500Y-72031288D01*
X89660500Y-71788712D01*
X89658837Y-71776082D01*
X91799500Y-71776082D01*
X91799500Y-71923918D01*
X91810162Y-71977517D01*
X91828342Y-72068913D01*
X91828343Y-72068916D01*
X91875665Y-72183160D01*
X91884916Y-72205495D01*
X91967049Y-72328416D01*
X92071584Y-72432951D01*
X92194505Y-72515084D01*
X92331087Y-72571658D01*
X92476082Y-72600500D01*
X92476087Y-72600500D01*
X92623913Y-72600500D01*
X92623918Y-72600500D01*
X92768913Y-72571658D01*
X92905495Y-72515084D01*
X93028416Y-72432951D01*
X93132951Y-72328416D01*
X93215084Y-72205495D01*
X93271658Y-72068913D01*
X93300500Y-71923918D01*
X93300500Y-71776082D01*
X93271658Y-71631087D01*
X93215084Y-71494505D01*
X93132951Y-71371584D01*
X93028416Y-71267049D01*
X92905495Y-71184916D01*
X92768916Y-71128343D01*
X92768913Y-71128342D01*
X92623918Y-71099500D01*
X92476082Y-71099500D01*
X92403584Y-71113921D01*
X92331086Y-71128342D01*
X92331083Y-71128343D01*
X92194504Y-71184916D01*
X92071588Y-71267046D01*
X92071581Y-71267051D01*
X91967051Y-71371581D01*
X91967046Y-71371588D01*
X91884916Y-71494504D01*
X91828343Y-71631083D01*
X91828342Y-71631086D01*
X91813921Y-71703584D01*
X91799500Y-71776082D01*
X89658837Y-71776082D01*
X89628838Y-71548211D01*
X89566054Y-71313900D01*
X89473224Y-71089788D01*
X89473218Y-71089779D01*
X89473217Y-71089775D01*
X89351938Y-70879714D01*
X89351936Y-70879711D01*
X89204265Y-70687262D01*
X89204259Y-70687256D01*
X89204255Y-70687251D01*
X89032748Y-70515744D01*
X89032742Y-70515739D01*
X89032738Y-70515735D01*
X88840289Y-70368064D01*
X88840288Y-70368063D01*
X88840285Y-70368061D01*
X88630224Y-70246782D01*
X88630216Y-70246778D01*
X88630212Y-70246776D01*
X88406100Y-70153946D01*
X88406097Y-70153945D01*
X88406095Y-70153944D01*
X88171782Y-70091160D01*
X87931290Y-70059500D01*
X87931288Y-70059500D01*
X87688712Y-70059500D01*
X87688709Y-70059500D01*
X87448217Y-70091160D01*
X87213904Y-70153944D01*
X87213900Y-70153946D01*
X86989786Y-70246777D01*
X86989775Y-70246782D01*
X86779714Y-70368061D01*
X86587262Y-70515735D01*
X86587251Y-70515744D01*
X86415744Y-70687251D01*
X86415735Y-70687262D01*
X86268061Y-70879714D01*
X86146782Y-71089775D01*
X86146777Y-71089786D01*
X86146776Y-71089788D01*
X86130806Y-71128343D01*
X86053946Y-71313900D01*
X86053944Y-71313904D01*
X85991160Y-71548217D01*
X85959500Y-71788709D01*
X85135830Y-71788709D01*
X85135830Y-69404170D01*
X85136151Y-69395182D01*
X85141462Y-69320921D01*
X85149372Y-69210318D01*
X85150597Y-69199647D01*
X85156508Y-69162335D01*
X85157829Y-69155303D01*
X85192782Y-68994627D01*
X85196064Y-68982490D01*
X85205146Y-68954541D01*
X85206872Y-68949589D01*
X85267627Y-68786699D01*
X85273402Y-68773564D01*
X85277134Y-68766240D01*
X85278756Y-68763166D01*
X85369554Y-68596884D01*
X85379271Y-68581765D01*
X85496691Y-68424909D01*
X85508451Y-68411338D01*
X85646998Y-68272791D01*
X85660569Y-68261031D01*
X85817427Y-68143609D01*
X85832544Y-68133894D01*
X85998003Y-68043546D01*
X86001007Y-68041961D01*
X86009476Y-68037646D01*
X86022597Y-68031879D01*
X86184353Y-67971546D01*
X86189333Y-67969810D01*
X86218556Y-67960315D01*
X86230681Y-67957035D01*
X86390140Y-67922348D01*
X86397142Y-67921033D01*
X86435921Y-67914892D01*
X86446571Y-67913670D01*
X86630841Y-67900491D01*
X86639828Y-67900170D01*
X145311979Y-67900828D01*
G37*
%TD.AperFunction*%
%TD*%
M02*
