M48
; DRILL file KiCad 10.0.5-10.0.5~ubuntu22.04.1 date 2026-08-04T00:03:58
; FORMAT={-:-/ absolute / metric / decimal}
; #@! TF.CreationDate,2026-08-04T00:03:58+05:30
; #@! TF.GenerationSoftware,Kicad,Pcbnew,10.0.5-10.0.5~ubuntu22.04.1
; #@! TF.FileFunction,MixedPlating,1,2
FMAT,2
METRIC
; #@! TA.AperFunction,Plated,PTH,ComponentDrill
T1C1.000
; #@! TA.AperFunction,NonPlated,NPTH,ComponentDrill
T2C1.000
; #@! TA.AperFunction,NonPlated,NPTH,ComponentDrill
T3C2.500
; #@! TA.AperFunction,NonPlated,NPTH,ComponentDrill
T4C3.200
%
G90
G05
T1
X89.93Y-77.85
X89.93Y-83.35
X92.47Y-77.85
X92.47Y-83.35
X103.13Y-77.85
X103.13Y-83.35
X105.67Y-77.85
X105.67Y-83.35
X114.93Y-77.85
X114.93Y-83.35
X117.47Y-77.85
X117.47Y-83.35
X126.73Y-77.85
X126.73Y-83.35
X129.27Y-77.85
X129.27Y-83.35
X139.93Y-77.85
X139.93Y-83.35
X142.47Y-77.85
X142.47Y-83.35
T2
X88.75Y-75.95
X101.95Y-75.95
X113.75Y-75.95
X125.55Y-75.95
X138.75Y-75.95
T3
X89.3Y-80.6
X93.1Y-80.6
X102.5Y-80.6
X106.3Y-80.6
X114.3Y-80.6
X118.1Y-80.6
X126.1Y-80.6
X129.9Y-80.6
X139.3Y-80.6
X143.1Y-80.6
T4
X87.81Y-71.91
X98.46Y-88.22
X133.9Y-88.22
X144.54Y-71.91
M30
